<svg xmlns="http://www.w3.org/2000/svg" width="22.792" height="22.792" viewBox="0 0 22.792 22.792">
  <g id="address" transform="translate(-898.966 -8204)">
    <path id="Path_3549" data-name="Path 3549" d="M19.4,8a11.4,11.4,0,1,0,11.4,11.4A11.4,11.4,0,0,0,19.4,8Zm.328,18.348a.4.4,0,0,1-.655,0c-.209-.294-.451-.646-.717-1.035a2.023,2.023,0,0,0-1.424-3.452,2.066,2.066,0,0,0-.67.123c-1.781-3.063-2.17-4.592-2.17-5.337a5.323,5.323,0,1,1,10.646,0C24.719,18.285,22.853,21.913,19.724,26.348Zm-3.889-2.46a1.078,1.078,0,1,1,1.078,1.078A1.078,1.078,0,0,1,15.835,23.888Z" transform="translate(890.966 8196)" fill="#c97629"/>
    <path id="Path_3550" data-name="Path 3550" d="M28.849,19.94A2.849,2.849,0,1,0,31.7,22.789a2.849,2.849,0,0,0-2.849-2.849Zm0,4.777a1.9,1.9,0,1,1,1.9-1.9A1.9,1.9,0,0,1,28.849,24.717Z" transform="translate(881.513 8189.729)" fill="#ffc048"/>
  </g>
</svg>
