<svg xmlns="http://www.w3.org/2000/svg" width="22.845" height="22.514" viewBox="0 0 22.845 22.514">
  <g id="bull-market" transform="translate(-11.35 -11.728)">
    <path id="Path_3556" data-name="Path 3556" d="M67.031,295.438l.372,1.86h-.744l-.372-.372-.481-.962a1.07,1.07,0,0,1,.04-1.029l.813-1.356-.494-.864a4.148,4.148,0,0,1-.25-3.6L66.361,288h3.073v5.034Z" transform="translate(-51.746 -263.428)" fill="#f5a431"/>
    <path id="Path_3557" data-name="Path 3557" d="M281.633,313.51l1.044,1.391a1.493,1.493,0,0,1,.3.9h0a1.493,1.493,0,0,1-.437,1.055l-1.051,1.05-.372-.744.372-1.116L280,315.3Z" transform="translate(-256.161 -287.753)" fill="#f5a431"/>
    <path id="Path_3558" data-name="Path 3558" d="M78.319,160.928h0a2.43,2.43,0,0,1-.53,1.408l-.955,1.194v.464l1.86,2.231H77.577l-1.116-.744-.738-.3a1.785,1.785,0,0,1-1.122-1.657v-.744l-1.217-.869A3.312,3.312,0,0,1,72,159.222h0a3.312,3.312,0,0,1,2.264-3.142l1.083-.361.81-1.157A6.008,6.008,0,0,1,81.077,152h0a6.008,6.008,0,0,1,5.274,3.131l.524.96.838.359a2.913,2.913,0,0,1,1.765,2.677h0a2.913,2.913,0,0,1-.675,1.865l-1.184,1.421-.528.792a.727.727,0,0,1-.6.324h0a.727.727,0,0,1-.727-.727V161.67h0a1.9,1.9,0,0,1-.157-1.817h0l-1.9-.379h0a4.066,4.066,0,0,1-1.061,1.185L81.3,161.67v4.091h-.744l-.744-.744v-1.488l-.66-.66a1.556,1.556,0,0,1-.456-1.1h0a1.556,1.556,0,0,1,.261-.863l.482-.724Z" transform="translate(-57.829 -133.751)" fill="#f7c04a"/>
    <path id="Path_3559" data-name="Path 3559" d="M398.883,281.226h0a2.691,2.691,0,0,0,1.254,2.835l.233.14-1.051-.234a2.121,2.121,0,0,1-1.552-2.742h0l.2-.432a.5.5,0,0,1,.516-.285h0a.5.5,0,0,1,.414.667Z" transform="translate(-368.349 -256.283)" fill="#fcedc0"/>
    <path id="Path_3560" data-name="Path 3560" d="M14.239,18.656l2.431.695a.372.372,0,0,0,.377-.107l3.51-3.861,2.712,1.695a.372.372,0,0,0,.46-.052l.9-.9,4.58,3.171a.372.372,0,0,0,.526-.107L34.2,12.125l-.629-.4L29.31,18.466,24.794,15.34a.372.372,0,0,0-.475.043l-.906.907-2.724-1.7a.372.372,0,0,0-.472.065l-3.564,3.92-2.381-.68a.372.372,0,0,0-.318.055l-2.6,1.86.432.605Z" transform="translate(0 0)"/>
    <path id="Path_3561" data-name="Path 3561" d="M37.928,153.722l-.233-.14a2.306,2.306,0,0,1-.451-.354,3.283,3.283,0,0,0-1.5-4.748l-.72-.308-.462-.847a6.38,6.38,0,0,0-10.827-.6L23,147.777l-.966.322a3.678,3.678,0,0,0-2.3,2.253,2.332,2.332,0,0,0-1.7,2.248v.1a1.587,1.587,0,0,1-.267.883l-.414.621.619.413.414-.621a2.328,2.328,0,0,0,.392-1.3v-.1a1.59,1.59,0,0,1,.761-1.358c-.011.116-.017.234-.017.352,0,.047,0,.093,0,.14a4.5,4.5,0,0,0,.3,3.86l.386.675-.7,1.169a1.436,1.436,0,0,0-.053,1.387l.481.962a.373.373,0,0,0,.07.1l.372.372a.372.372,0,0,0,.263.109h.744a.372.372,0,0,0,.365-.445l-.333-1.664,1.107-1.107a2.153,2.153,0,0,0,.961.755l.7.281,1.084.722a.372.372,0,0,0,.206.062h1.116a.372.372,0,0,0,.286-.61l-1.773-2.128v-.2l.874-1.092a2.786,2.786,0,0,0,.278-.423,1.914,1.914,0,0,0,.528.987l.551.551v1.334a.372.372,0,0,0,.109.263l.744.744a.372.372,0,0,0,.263.109h.744a.372.372,0,0,0,.372-.372v-3.905l.114-.085.919.46-.27.81a.372.372,0,0,0,.02.284l.372.744a.372.372,0,0,0,.6.1l1.051-1.05a1.852,1.852,0,0,0,.546-1.318,1.876,1.876,0,0,0-.373-1.119l-.561-.748,1.041.208a2.271,2.271,0,0,0,.266,1.641v1.026a1.1,1.1,0,0,0,2.013.609l.517-.776.716-.859.086.021,1.051.234a.372.372,0,0,0,.272-.682Zm-17.19,4.147a.372.372,0,0,0-.1.336l.283,1.415h-.136l-.22-.22-.454-.908a.7.7,0,0,1,.026-.672l.813-1.356a.372.372,0,0,0,0-.376l-.494-.864a3.764,3.764,0,0,1-.5-1.877,3.682,3.682,0,0,0,1.1,1.244l1.061.758v.552a2.178,2.178,0,0,0,.064.525Zm11.092-2.91-.686.686-.072-.145.323-.97a.372.372,0,0,0-.187-.45l-.875-.438.42-.315a4.4,4.4,0,0,0,.626-.572l.554.739a1.128,1.128,0,0,1,.224.672A1.113,1.113,0,0,1,31.83,154.959Zm3.39-.412a.37.37,0,0,0-.024.032l-.528.792a.355.355,0,0,1-.65-.2v-1.133a.372.372,0,0,0-.062-.206A1.526,1.526,0,0,1,34,152.076l.311-.415-.6-.446-.311.415c-.043.057-.082.116-.119.176l-1.145-.229a4.429,4.429,0,0,0-.916-4.941l-.3-.3-.526.526.3.3a3.672,3.672,0,0,1,1.083,2.614,3.714,3.714,0,0,1-1.478,2.957l-1.348,1.011a.372.372,0,0,0-.149.3v3.719h-.218l-.526-.526V155.9a.372.372,0,0,0-.109-.263l-.66-.66a1.184,1.184,0,0,1-.148-1.494l.482-.724a.372.372,0,0,0,.023-.373l-.312-.623a3.273,3.273,0,0,1,.614-3.782l-.526-.526a4.016,4.016,0,0,0-.753,4.641l.165.329-.319.212a2.8,2.8,0,0,0-1.861-2.107l-1.686-.562-.235.706,1.686.562a2.058,2.058,0,0,1,.956,3.238l-.955,1.194a.372.372,0,0,0-.081.232v.464a.372.372,0,0,0,.086.238l1.351,1.621h-.209l-1.022-.681a.372.372,0,0,0-.068-.036l-.738-.3a1.406,1.406,0,0,1-.888-1.312v-.744a.372.372,0,0,0-.156-.3l-1.217-.869a2.94,2.94,0,0,1,.779-5.181l1.083-.361a.372.372,0,0,0,.187-.14l.81-1.157a5.636,5.636,0,0,1,9.565.533l.524.96a.372.372,0,0,0,.18.164l.838.359a2.538,2.538,0,0,1,1.317,3.373,2.317,2.317,0,0,1-.161-1.373l.008-.024A.875.875,0,0,0,35,150.476l-.2.432a.381.381,0,0,0-.016.041,2.49,2.49,0,0,0,1.028,2.892Zm1.118-1.259a1.749,1.749,0,0,1-.858-2.085l.194-.411a.131.131,0,0,1,.243.1l-.018.05a.38.38,0,0,0-.014.05A3.067,3.067,0,0,0,36.338,153.288Z" transform="translate(-5.715 -126.122)"/>
  </g>
</svg>
