<svg xmlns="http://www.w3.org/2000/svg" width="61.82" height="61.786" viewBox="0 0 61.82 61.786">
  <g id="Icon-3" transform="translate(0)">
    <path id="Path_3300" data-name="Path 3300" d="M314,54.28h.966c.3.187.613.366.91.563q14.08,9.343,28.148,18.7a9.438,9.438,0,0,1,1.362,1.375v.966a11.758,11.758,0,0,1-1.363,1.375c-1.085.794-2.231,1.5-3.352,2.249-.375.25-.747.5-1.17.788,1.557,1.034,3.065,1.993,4.522,3.025a10.792,10.792,0,0,1,1.363,1.375v.966a11.734,11.734,0,0,1-1.363,1.375c-1.085.794-2.231,1.5-3.352,2.249-.375.25-.747.5-1.17.788,1.557,1.034,3.065,1.993,4.522,3.025a10.813,10.813,0,0,1,1.363,1.375v.966a9.757,9.757,0,0,1-1.364,1.376c-3.313,2.242-6.656,4.438-9.989,6.651q-9.119,6.055-18.233,12.116a2.011,2.011,0,0,1-2.456.11q-14.415-9.581-28.834-19.153a1.8,1.8,0,0,1,.013-3.175c.9-.609,1.809-1.2,2.713-1.8.73-.486,1.457-.974,2.242-1.5-1.673-1.11-3.282-2.172-4.885-3.243a1.827,1.827,0,0,1-.006-3.279c1.437-.961,2.882-1.91,4.322-2.867.173-.115.338-.244.552-.4l-4.732-3.145c-1.541-1.025-1.552-2.429-.026-3.442q9.042-6.007,18.086-12.011Q308.387,57.971,314,54.28Zm-25.31,21.111c.222.161.362.271.508.368q12.429,8.255,24.854,16.517a.677.677,0,0,0,.895-.027q12.4-8.249,24.807-16.48c.159-.106.307-.229.5-.371-.194-.14-.333-.249-.48-.347Q327.341,66.8,314.917,58.532a.678.678,0,0,0-.9.029q-9.032,6.015-18.076,12.012Zm-.014,9.787c.3.207.5.345.7.477q12.282,8.155,24.558,16.319a.831.831,0,0,0,1.1,0Q326.7,94.2,338.385,86.457c.613-.407,1.222-.819,1.9-1.277-1.224-.815-2.385-1.562-3.515-2.354a.827.827,0,0,0-1.1-.012q-9.932,6.625-19.882,13.223a2.1,2.1,0,0,1-2.61,0c-3.586-2.41-7.194-4.789-10.794-7.179q-4.6-3.051-9.2-6.094c-.171-.113-.49-.223-.619-.142C291.28,83.435,290.019,84.287,288.674,85.178ZM340.3,94.961c-1.249-.832-2.414-1.582-3.548-2.376a.786.786,0,0,0-1.055-.008q-9.906,6.61-19.836,13.184a1.969,1.969,0,0,1-2.749-.006q-9.9-6.57-19.786-13.15a.851.851,0,0,0-1.155.019c-.978.7-2,1.342-3.007,2.011-.142.095-.271.208-.439.338.177.128.3.225.433.312q12.456,8.274,24.908,16.555a.679.679,0,0,0,.9-.042Q325.173,105,335.4,98.22C337,97.155,338.6,96.086,340.3,94.961Z" transform="translate(-283.565 -54.28)" fill="#7b7b7b"/>
    <path id="Path_3301" data-name="Path 3301" d="M360.712,96.51a1.775,1.775,0,0,1-.957,1.571,1.815,1.815,0,0,1-1.941-.131l-5.674-3.767c-2.661-1.768-5.327-3.528-7.976-5.313a.677.677,0,0,0-.9.012q-6.718,4.483-13.455,8.938a2.879,2.879,0,0,1-.857.419,1.8,1.8,0,0,1-1.341-3.292q6.044-4.027,12.1-8.04c.937-.622,1.884-1.231,2.809-1.87a1.915,1.915,0,0,1,2.351-.03q7.453,4.956,14.914,9.9A1.946,1.946,0,0,1,360.712,96.51Z" transform="translate(-312.801 -74.832)" fill="#7b7b7b"/>
    <path id="Path_3302" data-name="Path 3302" d="M349.542,121.882a1.86,1.86,0,0,1,.837-1.524q3.887-2.586,7.781-5.161a1.73,1.73,0,0,1,2.038.005c2.581,1.7,5.162,3.406,7.73,5.13a1.808,1.808,0,1,1-2.016,3q-3.147-2.067-6.268-4.173a.71.71,0,0,0-.945.012c-2.08,1.4-4.176,2.785-6.269,4.171a1.765,1.765,0,0,1-1.935.118A1.8,1.8,0,0,1,349.542,121.882Z" transform="translate(-328.258 -95.322)" fill="#7b7b7b"/>
  </g>
</svg>
