<svg id="Icon-2" xmlns="http://www.w3.org/2000/svg" width="51.479" height="61.786" viewBox="0 0 51.479 61.786">
  <path id="Path_3337" data-name="Path 3337" d="M324.923,524.634a1.45,1.45,0,0,1,.72,1.407c-.025,2.191.012,4.383-.031,6.573a1.63,1.63,0,0,1-.484,1.076,1.026,1.026,0,0,1-.979.051,1.376,1.376,0,0,1-.546-.964c-.051-1.929-.026-3.859-.026-5.789a8.6,8.6,0,0,0-.005-.9,1.477,1.477,0,0,1,.629-1.45Z" transform="translate(-306.061 -524.634)" fill="#7b7b7b"/>
  <path id="Path_3338" data-name="Path 3338" d="M354.1,524.634a1.593,1.593,0,0,1,.635,1.45c-.029,2.15-.01,4.3-.012,6.453,0,.873-.364,1.357-1.012,1.363s-1.043-.5-1.044-1.345c0-2.171.015-4.342-.01-6.513a1.444,1.444,0,0,1,.719-1.407Z" transform="translate(-320.764 -524.634)" fill="#7b7b7b"/>
  <path id="Path_3339" data-name="Path 3339" d="M339.529,524.634a1.5,1.5,0,0,1,.679,1.428c-.022,1.787-.007,3.575-.008,5.362a3.7,3.7,0,0,1-.019.481.992.992,0,0,1-1.044.947.942.942,0,0,1-.975-.947c-.027-2.108-.037-4.217.02-6.324.009-.321.406-.631.624-.947Z" transform="translate(-313.427 -524.634)" fill="#7b7b7b"/>
  <path id="Path_3340" data-name="Path 3340" d="M368.59,524.634a1.339,1.339,0,0,1,.73,1.39c-.037.539,0,1.083-.012,1.624a1.025,1.025,0,0,1-1.032,1.093,1.014,1.014,0,0,1-1.016-1.1c-.013-.541.026-1.085-.011-1.624a1.3,1.3,0,0,1,.737-1.38Z" transform="translate(-328.131 -524.634)" fill="#7b7b7b"/>
  <path id="Path_3341" data-name="Path 3341" d="M310.3,524.634a1.3,1.3,0,0,1,.738,1.38c-.038.559.005,1.123-.014,1.684a1.021,1.021,0,1,1-2.042.009,10.167,10.167,0,0,1,.027-2.04c.064-.373.448-.691.688-1.034Z" transform="translate(-298.678 -524.634)" fill="#7b7b7b"/>
  <path id="Path_3342" data-name="Path 3342" d="M334.531,550.456V546.9q0-5.157,0-10.315a4.341,4.341,0,0,1,.023-.662,1.006,1.006,0,0,1,1.948-.164,2.864,2.864,0,0,1,.084.832c0,5.529,0,11.059.013,16.588a2.219,2.219,0,0,0,.218.973,25.732,25.732,0,1,1-48.11,16.8,25.472,25.472,0,0,1,2.316-16.753,2.4,2.4,0,0,0,.244-1.027q.022-8.173.01-16.346c0-.141,0-.282,0-.422.008-.884.36-1.337,1.038-1.338s1.02.441,1.021,1.337q0,6.606,0,13.21v.83c5.359-6.654,12.17-10.223,20.6-10.223S329.159,543.789,334.531,550.456Zm-20.594-8.2A23.68,23.68,0,1,0,337.6,565.92,23.674,23.674,0,0,0,313.936,542.255Z" transform="translate(-288.195 -529.908)" fill="#7b7b7b"/>
  <path id="Path_3343" data-name="Path 3343" d="M309,540.132c0-.641-.013-1.282,0-1.922a1.026,1.026,0,1,1,2.046.017q.018,1.982,0,3.965a.994.994,0,0,1-1.029,1.08,1.01,1.01,0,0,1-1.017-1.1C308.992,541.494,309,540.813,309,540.132Z" transform="translate(-298.705 -530.938)" fill="#7b7b7b"/>
  <path id="Path_3344" data-name="Path 3344" d="M367.268,540.2c0-.661-.01-1.322,0-1.983a1.026,1.026,0,1,1,2.045,0q.022,1.982,0,3.965a1.025,1.025,0,1,1-2.046,0C367.257,541.521,367.268,540.86,367.268,540.2Z" transform="translate(-328.141 -530.938)" fill="#7b7b7b"/>
  <path id="Path_3345" data-name="Path 3345" d="M313.7,591.462c.234-1.434.515-3.117.782-4.8.48-3.022.707-2.217-1.345-4.342-.991-1.026-2-2.04-3-3.051a3.33,3.33,0,0,1,2.058-5.816c1.85-.252,3.691-.563,5.54-.822a1.418,1.418,0,0,0,1.177-.894c.866-1.854,1.765-3.694,2.627-5.55a3.12,3.12,0,0,1,5.832.008c.852,1.839,1.749,3.657,2.6,5.5a1.493,1.493,0,0,0,1.268.947c1.969.272,3.931.59,5.894.9A3.046,3.046,0,0,1,339.7,575.7a3.142,3.142,0,0,1-.744,3.349q-2.1,2.2-4.273,4.339a1.781,1.781,0,0,0-.54,1.737q.54,3.024,1.01,6.059a3.176,3.176,0,0,1-1.323,3.28,3.023,3.023,0,0,1-3.458.082c-1.719-.956-3.457-1.879-5.172-2.844a1.4,1.4,0,0,0-1.521.005c-1.768.993-3.541,1.977-5.336,2.919C316.117,595.8,313.646,594.238,313.7,591.462Zm2.057.151c-.031,1.12.795,1.649,1.693,1.165,1.767-.952,3.536-1.9,5.285-2.89a3.259,3.259,0,0,1,3.429,0c1.7.953,3.417,1.871,5.122,2.814.44.243.874.445,1.347.107a1.3,1.3,0,0,0,.482-1.4c-.331-2-.646-4.005-1-6A3.588,3.588,0,0,1,333.163,582c1.4-1.384,2.768-2.8,4.155-4.2a1.335,1.335,0,0,0,.436-1.463,1.248,1.248,0,0,0-1.159-.812c-1.887-.284-3.77-.595-5.661-.849a3.342,3.342,0,0,1-2.783-2.016c-.864-1.856-1.759-3.7-2.628-5.553-.228-.488-.516-.883-1.1-.869-.558.014-.827.405-1.044.87-.869,1.854-1.762,3.7-2.627,5.553a3.319,3.319,0,0,1-2.723,2.012c-1.91.266-3.815.565-5.721.854-.794.12-1.262.506-1.214,1.159a1.936,1.936,0,0,0,.5,1.1c1.381,1.46,2.8,2.883,4.221,4.307a3.444,3.444,0,0,1,1.011,3.081c-.08.557-.188,1.109-.28,1.663C316.272,588.46,316.005,590.085,315.753,591.613Z" transform="translate(-298.706 -544.612)" fill="#7b7b7b"/>
  <path id="Path_3346" data-name="Path 3346" d="M327.106,553.77a21.427,21.427,0,0,1,20.6,17.293,21.025,21.025,0,0,1-1.738,13.8c-.381.788-.915,1.05-1.518.762s-.709-.861-.331-1.663a19.561,19.561,0,0,0-28.841-24.564c-.164.116-.322.242-.493.346a1.028,1.028,0,0,1-1.439-.25.97.97,0,0,1,.281-1.425,36.4,36.4,0,0,1,3.493-2.128A21.4,21.4,0,0,1,327.106,553.77Z" transform="translate(-300.803 -539.354)" fill="#7b7b7b"/>
  <path id="Path_3347" data-name="Path 3347" d="M317.977,608.548c-10.2.26-19.635-7.712-21.207-18.484a21.373,21.373,0,0,1,1.958-12.665c.237-.489.555-.853,1.147-.8a1.036,1.036,0,0,1,.754,1.6,20.765,20.765,0,0,0-1.7,5.063,19.536,19.536,0,0,0,14.508,22.625,19.237,19.237,0,0,0,16.06-3.049,2.768,2.768,0,0,1,.9-.445.877.877,0,0,1,1,.505.947.947,0,0,1-.112,1.124,2.286,2.286,0,0,1-.454.391A22.274,22.274,0,0,1,317.977,608.548Z" transform="translate(-292.406 -550.885)" fill="#7b7b7b"/>
</svg>
