<svg xmlns="http://www.w3.org/2000/svg" width="88.931" height="89.001" viewBox="0 0 88.931 89.001">
  <path id="Icon-1" d="M88.838,41.731A44.465,44.465,0,0,0,44.727,0H44.2A44.457,44.457,0,0,0,.085,41.7C.03,42.621,0,43.537,0,44.475s.037,1.854.093,2.766A44.1,44.1,0,0,0,6.482,67.6,44.09,44.09,0,0,0,44.134,88.931H44.8A44.46,44.46,0,0,0,88.89,47.252c.052-.89.111-1.839.111-2.725s0-1.836-.059-2.722l-.1-.082ZM44.5,57.972v14.2c.356,8.677-2.114,10.123-5.08,10.257-.126,0-.245.011-.371.015A38.371,38.371,0,0,1,6.482,49.729a37.518,37.518,0,0,1,0-10.524A38.359,38.359,0,0,1,39,6.5l.426.037c2.966.159,5.432,1.594,5.08,10.249V30.981c-.037,5.833,3.319,11.391,6.886,13.5-3.567,2.077-6.927,6.953-6.89,13.475Z" transform="translate(0 89.001) rotate(-90)" fill="#fec844"/>
</svg>
