<svg xmlns="http://www.w3.org/2000/svg" width="21.162" height="22.948" viewBox="0 0 21.162 22.948">
  <g id="coin" transform="translate(-19.928)">
    <path id="Path_3551" data-name="Path 3551" d="M47.918,237.858a10.245,10.245,0,1,1-20.49,0v-1.786h20.49v1.786Z" transform="translate(-7.164 -225.491)" fill="#de9621"/>
    <path id="Path_3552" data-name="Path 3552" d="M47.614,17.842l.428-.3v-.019a10.2,10.2,0,0,0-2.74-6.625l-.02-.022-.609.066.134-.542-.018-.017a10.207,10.207,0,0,0-6.629-2.744h-.019l-.336.508-.336-.508h-.02A10.206,10.206,0,0,0,30.8,10.4l-.153.475h-.323a10.206,10.206,0,0,0-2.76,6.627v.038l.232.422-.232.25v.04a10.205,10.205,0,0,0,2.76,6.626h.457l.018.476a10.208,10.208,0,0,0,6.666,2.761l.333-.488.339.488A10.206,10.206,0,0,0,44.8,25.351l-.328-.83.8.354a10.208,10.208,0,0,0,2.761-6.648V18.21Z" transform="translate(-7.294 -7.293)" fill="#f9a825"/>
    <circle id="Ellipse_51" data-name="Ellipse 51" cx="8.442" cy="8.442" r="8.442" transform="translate(22.067 2.139)" fill="#ffca28"/>
    <path id="Path_3553" data-name="Path 3553" d="M162.069,98.241a6.64,6.64,0,0,0,3.147,1.2v.952a.668.668,0,0,0,.676.66.655.655,0,0,0,.66-.66v-.921c1.95-.184,3.27-1.305,3.27-2.994,0-1.643-1-2.579-3.332-3.163V90.365a5.577,5.577,0,0,1,1.581.675.889.889,0,0,0,.461.138.845.845,0,0,0,.86-.844.822.822,0,0,0-.461-.737,5.588,5.588,0,0,0-2.38-.844v-.338a.655.655,0,0,0-.66-.66.668.668,0,0,0-.676.66v.322c-1.919.154-3.224,1.29-3.224,2.932,0,1.735,1.044,2.579,3.286,3.163v3.025a5.439,5.439,0,0,1-2.272-1.029.848.848,0,1,0-.936,1.412Zm4.422-3.117c1.182.368,1.52.783,1.52,1.458,0,.737-.537,1.228-1.52,1.336ZM163.8,91.562c0-.676.491-1.2,1.474-1.29V92.99C164.1,92.606,163.8,92.207,163.8,91.562Z" transform="translate(-135.374 -83.822)" fill="#f9a825"/>
    <path id="Path_3554" data-name="Path 3554" d="M158.729,94.223a1,1,0,0,1-1.012-1V92.57a6.973,6.973,0,0,1-3-1.215,1.185,1.185,0,0,1-.562-1.015,1.168,1.168,0,0,1,1.181-1.181,1.182,1.182,0,0,1,.708.236,5.365,5.365,0,0,0,1.735.877V87.926a5.689,5.689,0,0,1-2.376-1.16,2.906,2.906,0,0,1-.91-2.26,2.977,2.977,0,0,1,1-2.275,4.107,4.107,0,0,1,2.22-.959v-.021a1,1,0,0,1,1.012-1,.986.986,0,0,1,1,1V81.3a5.924,5.924,0,0,1,2.216.847,1.153,1.153,0,0,1,.624,1.026,1.176,1.176,0,0,1-1.2,1.181,1.224,1.224,0,0,1-.633-.186,5.827,5.827,0,0,0-1.072-.516v2.24a5.659,5.659,0,0,1,2.436,1.2,2.9,2.9,0,0,1,.9,2.223c0,1.73-1.273,3-3.27,3.292v.623A.986.986,0,0,1,158.729,94.223Zm-3.393-4.391a.5.5,0,0,0-.508.508.508.508,0,0,0,.261.455l.011.007a6.3,6.3,0,0,0,2.989,1.138l.3.032v1.254a.332.332,0,0,0,.339.324.321.321,0,0,0,.324-.324V92l.3-.029c1.829-.173,2.966-1.192,2.966-2.659s-.891-2.29-3.077-2.837l-.255-.064V82.777l.413.1a5.881,5.881,0,0,1,1.677.714.556.556,0,0,0,.288.09.511.511,0,0,0,.524-.508.478.478,0,0,0-.289-.444l-.014-.009a5.279,5.279,0,0,0-2.24-.795l-.3-.035v-.636a.321.321,0,0,0-.324-.324.332.332,0,0,0-.339.324v.633l-.309.025c-1.771.142-2.915,1.161-2.915,2.6,0,1.493.822,2.262,3.034,2.837l.251.065V91.1l-.4-.072a5.725,5.725,0,0,1-2.409-1.087l-.009-.007A.5.5,0,0,0,155.335,89.832Zm3.656,1.3V87.5l.436.136c1.054.329,1.756.757,1.756,1.779,0,.921-.68,1.545-1.82,1.67Zm.672-2.693v1.918a.964.964,0,0,0,.848-.935C160.511,89.072,160.44,88.754,159.663,88.436Zm-1.213-2.147-.44-.143c-1.228-.4-1.706-.889-1.706-1.748,0-.9.682-1.521,1.779-1.624l.368-.034Zm-.672-2.782a.921.921,0,0,0-.8.892c0,.353.065.638.8.947Z" transform="translate(-128.211 -76.658)"/>
    <path id="Path_3555" data-name="Path 3555" d="M30.509,0a10.561,10.561,0,0,0-7.48,3.1l0,0,0,0a10.607,10.607,0,0,0-1.948,2.681.336.336,0,1,0,.6.305,9.931,9.931,0,0,1,1.594-2.27l.8.8a8.744,8.744,0,0,0-2.334,5.625H20.606a9.869,9.869,0,0,1,.565-2.986.336.336,0,1,0-.633-.225,10.554,10.554,0,0,0-.61,3.547v1.786a10.581,10.581,0,0,0,21.162,0V10.581A10.581,10.581,0,0,0,30.509,0Zm.336.679a9.832,9.832,0,0,1,6.428,2.663l-.8.8A8.744,8.744,0,0,0,30.845,1.81Zm-7.1,2.663A9.871,9.871,0,0,1,30.173.678V1.81a8.745,8.745,0,0,0-5.625,2.334Zm6.764-.866A8.105,8.105,0,1,1,22.4,10.581,8.115,8.115,0,0,1,30.509,2.476ZM36.47,17.018l.8.8a9.825,9.825,0,0,1-5.055,2.523,10,10,0,0,1-1.373.14V19.352A8.744,8.744,0,0,0,36.47,17.018Zm-6.3,2.334v1.132a10,10,0,0,1-1.373-.14,9.825,9.825,0,0,1-5.055-2.523l.8-.8A8.745,8.745,0,0,0,30.173,19.352Zm-8.434-8.434a8.745,8.745,0,0,0,2.334,5.625l-.8.8a9.831,9.831,0,0,1-2.663-6.428h1.132Zm15.777,8.457A9.917,9.917,0,0,1,21.05,15.335q.053.105.109.209a10.531,10.531,0,0,0,.811,1.288,10.741,10.741,0,0,0,1.058,1.231,10.582,10.582,0,0,0,14.385.538,10.793,10.793,0,0,0,1.637-1.769,10.515,10.515,0,0,0,.811-1.288q.056-.1.109-.21A9.862,9.862,0,0,1,37.516,19.374Zm.233-2.029-.8-.8a8.744,8.744,0,0,0,2.334-5.625h1.132A9.831,9.831,0,0,1,37.749,17.345Zm1.531-7.1A8.744,8.744,0,0,0,36.946,4.62l.8-.8a9.832,9.832,0,0,1,2.663,6.428Z"/>
  </g>
</svg>
