<svg xmlns="http://www.w3.org/2000/svg" width="101.289" height="105.633" viewBox="0 0 101.289 105.633">
  <g id="Icon-13" transform="translate(-71.726 -534.075)">
    <path id="Path_3333" data-name="Path 3333" d="M121.338,639.708a12.119,12.119,0,0,1-6.8-3.972c-1.506-1.555-3.13-2.995-4.656-4.531a3.793,3.793,0,0,0-3.562-1.114q-3.916.632-7.853,1.127c-5.8.722-10-2.5-10.952-8.329-.411-2.508-.872-5.007-1.286-7.514a3.777,3.777,0,0,0-2.167-2.93c-2.387-1.215-4.749-2.479-7.1-3.755-4.9-2.656-6.538-7.694-4.143-12.725,1.151-2.418,2.321-4.828,3.533-7.215a3.841,3.841,0,0,0-.006-3.734c-1.2-2.357-2.348-4.737-3.492-7.12-2.457-5.117-.8-10.174,4.213-12.862,2.3-1.235,4.588-2.491,6.921-3.658a3.973,3.973,0,0,0,2.282-3.19c.418-2.644.857-5.289,1.391-7.913,1.133-5.574,5.528-8.561,11.143-7.677,2.612.411,5.234.762,7.851,1.14a3.484,3.484,0,0,0,3.1-1.041q2.945-2.889,5.93-5.738a9.208,9.208,0,0,1,13.379,0c1.94,1.852,3.884,3.7,5.778,5.6a3.889,3.889,0,0,0,3.657,1.131c2.61-.426,5.228-.823,7.854-1.125,5.718-.657,9.809,2.424,10.84,8.108.453,2.5.9,5,1.289,7.514a3.963,3.963,0,0,0,2.277,3.194c2.3,1.154,4.557,2.4,6.829,3.612,5.173,2.761,6.8,7.8,4.232,13.09-1.1,2.253-2.156,4.527-3.318,6.747a4.1,4.1,0,0,0-.015,4.106c1.2,2.313,2.322,4.673,3.444,7.029,2.4,5.04.769,10.068-4.129,12.728-2.324,1.262-4.648,2.526-7.013,3.705a4.036,4.036,0,0,0-2.317,3.279c-.4,2.612-.848,5.221-1.374,7.811-1.134,5.589-5.5,8.579-11.122,7.708-2.613-.406-5.235-.757-7.852-1.138a3.473,3.473,0,0,0-3.1,1.015c-1.595,1.566-3.253,3.068-4.809,4.672a12.129,12.129,0,0,1-6.8,3.972Zm26.306-14.453a3.089,3.089,0,0,0,3.4-2.56c.452-2.361.956-4.719,1.234-7.1a10.581,10.581,0,0,1,6.5-9.059c2.09-.951,4.081-2.12,6.108-3.207,2.044-1.1,2.556-2.65,1.553-4.726-1.165-2.411-2.325-4.824-3.532-7.214a9.446,9.446,0,0,1,0-8.993c1.175-2.329,2.3-4.685,3.438-7.031,1.131-2.328.653-3.784-1.64-5-2.365-1.257-4.735-2.5-7.1-3.765a9.147,9.147,0,0,1-4.984-6.69c-.524-2.871-1.011-5.749-1.549-8.616a3.11,3.11,0,0,0-3.789-2.729c-2.618.365-5.239.723-7.85,1.143a9.706,9.706,0,0,1-8.936-2.857c-1.817-1.828-3.7-3.594-5.552-5.385-1.811-1.748-3.363-1.738-5.2.032q-2.893,2.795-5.782,5.593a9.068,9.068,0,0,1-7.793,2.691c-2.86-.376-5.716-.784-8.571-1.2a3.152,3.152,0,0,0-3.956,2.754c-.428,2.26-.931,4.516-1.183,6.8a10.609,10.609,0,0,1-6.554,9.137c-2.058.938-4.02,2.09-6.018,3.159-2.109,1.128-2.612,2.655-1.577,4.793,1.167,2.409,2.332,4.821,3.531,7.215a9.426,9.426,0,0,1,0,8.9c-1.183,2.364-2.328,4.747-3.484,7.124-1.1,2.266-.618,3.745,1.611,4.934,2.333,1.244,4.662,2.5,7.008,3.714a9.535,9.535,0,0,1,5.262,7.418c.409,2.611.888,5.213,1.379,7.81.43,2.273,1.805,3.19,4.07,2.846,2.615-.4,5.236-.748,7.852-1.134a9.732,9.732,0,0,1,8.72,2.926c1.8,1.794,3.65,3.544,5.481,5.311s3.385,1.78,5.195.034,3.65-3.448,5.4-5.243a9.9,9.9,0,0,1,9.391-2.949C142.413,624.6,145.112,624.9,147.644,625.255Z" fill="#d29e33"/>
    <path id="Path_3334" data-name="Path 3334" d="M153.15,574.929c-.273.611-.515,1.239-.833,1.826a3.693,3.693,0,0,1-.692.758q-19.61,19.614-39.22,39.228a3.592,3.592,0,0,1-2.659,1.365,3.026,3.026,0,0,1-2.413-4.831,7.231,7.231,0,0,1,.763-.835q19.61-19.615,39.22-39.23a3.643,3.643,0,0,1,2.66-1.367A3.287,3.287,0,0,1,153.15,574.929Z" transform="translate(-7.491 -8.088)" fill="#d29e33"/>
    <path id="Path_3335" data-name="Path 3335" d="M117.579,588.71a11.162,11.162,0,1,1,11.208-11.075A11.134,11.134,0,0,1,117.579,588.71Zm.089-16.192a5.056,5.056,0,0,0-5.11,4.979,5.067,5.067,0,1,0,10.134.079A5.045,5.045,0,0,0,117.667,572.518Z" transform="translate(-7.442 -6.919)" fill="#d29e33"/>
    <path id="Path_3336" data-name="Path 3336" d="M148.663,607.777a11.158,11.158,0,1,1-11.184,11.091A11.119,11.119,0,0,1,148.663,607.777Zm-.068,16.185a5.046,5.046,0,0,0,5.11-4.977,5.067,5.067,0,1,0-10.134-.081A5.041,5.041,0,0,0,148.595,623.962Z" transform="translate(-14.081 -15.783)" fill="#d29e33"/>
  </g>
</svg>
