<svg xmlns="http://www.w3.org/2000/svg" width="83.44" height="105.89" viewBox="0 0 83.44 105.89">
  <g id="Icon-12_clr" data-name="Icon-12 clr" transform="translate(-63.831 -279.292)">
    <path id="Path_3308" data-name="Path 3308" d="M140.715,354.732c0-3.468.028-6.773-.014-10.076-.016-1.23-.834-1.911-2.213-1.941-1.634-.036-3.271,0-4.9-.022a3.715,3.715,0,0,1-1.447-.221,2.064,2.064,0,0,1-1.243-2.331,2.133,2.133,0,0,1,2.152-1.836c2.052-.042,4.113-.1,6.158.027a6.328,6.328,0,0,1,5.894,5.8,15.7,15.7,0,0,1,.062,1.6q.006,12.61-.009,25.221a2.545,2.545,0,0,0,.744,2.027,4.93,4.93,0,0,1,1.369,3.642q.014,5.307,0,10.614a5.836,5.836,0,0,1-1.5,3.845,2.563,2.563,0,0,0-.578,1.484c-.082,3.954-.052,7.911-.163,11.864a11.493,11.493,0,0,1-.661,3.22,7.258,7.258,0,0,1-6.98,5.246c-.3.014-.608.012-.912.012q-30.858,0-61.716,0c-5,0-8.9-2.636-10.316-7.08a12.873,12.873,0,0,1-.562-3.809q-.064-26.362-.042-52.725A10.711,10.711,0,0,1,76.05,338.294a2.215,2.215,0,0,1,2.111,2.26,2.155,2.155,0,0,1-2.111,2.119c-.643.053-1.293.007-1.937.048a6,6,0,0,0,.309,12q17.454.026,34.908.007h31.385ZM68.3,357.264v1.4q0,21.625,0,43.251c0,4.229,2.326,6.562,6.563,6.563q30.8.01,61.6,0c2.61,0,3.722-.76,4-3.341.292-2.71.2-5.461.26-8.2.029-1.394.005-2.79.005-4.32-2.067,0-4,.044-5.925-.009a10.523,10.523,0,0,1-9.612-6.872,10.743,10.743,0,0,1,10.053-14.59c1.809-.023,3.618,0,5.41,0V359.171H139q-31.084,0-62.168.014C73.92,359.189,71.06,359.1,68.3,357.264Zm74.52,24.628c0-1.708-.012-3.417.006-5.125.008-.73-.268-1.2-1.033-1.2-2.465.01-4.943-.1-7.392.114a6.191,6.191,0,0,0-5.542,6.419,6.345,6.345,0,0,0,6.032,6.13c2.236.085,4.477.013,6.716.029.862.007,1.234-.377,1.22-1.244C142.8,385.308,142.816,383.6,142.816,381.891Z" transform="translate(0 -27.723)" fill="#d29e33"/>
    <path id="Path_3309" data-name="Path 3309" d="M97.46,318.733c-5.083-6.066-7.053-12.85-5.567-20.487a22.814,22.814,0,0,1,8.45-13.8,23.524,23.524,0,0,1,30.718,1.158,23.782,23.782,0,0,1,1.58,33.119c.39.027.708.067,1.026.067,2.585.006,5.171-.013,7.756.011a2.263,2.263,0,0,1,2.441,2.175,2.236,2.236,0,0,1-2.382,2.22c-.38.016-.76.006-1.141.006H89.589c-.266,0-.532,0-.8,0-1.656-.03-2.63-.84-2.632-2.189s1-2.208,2.618-2.216c2.471-.012,4.942,0,7.413-.005C96.552,318.788,96.914,318.758,97.46,318.733Zm19.685-.294.15.346c2.734,0,5.467.013,8.2-.02a1.713,1.713,0,0,0,.894-.429c5.947-4.6,8.6-10.7,7.6-18.109a19.046,19.046,0,0,0-26.411-14.971,18.186,18.186,0,0,0-11.532,15.014c-1,7.324,1.625,13.362,7.449,17.949a2.583,2.583,0,0,0,1.427.546c2.394.055,4.79.029,7.186.019a3.8,3.8,0,0,0,.7-.134,1.632,1.632,0,0,0-.81-.776,6.79,6.79,0,0,1-3.134-3.043c-.863-1.667-.621-3,.658-3.652s2.305-.142,3.222,1.552a3.254,3.254,0,0,0,.235.39,2.524,2.524,0,0,0,3.058.819,2.473,2.473,0,0,0,1.43-2.812c-.254-1.262-1.059-1.847-2.778-2.021a6.932,6.932,0,0,1-2.557-13.232,1.545,1.545,0,0,0,.678-.975,2.3,2.3,0,0,1,2.164-2.106,2.119,2.119,0,0,1,2.191,2.032c.04.674.364.882.876,1.126a6.607,6.607,0,0,1,3.323,3.455c.613,1.426.276,2.662-.88,3.23-1.238.608-2.356.11-3.111-1.385-.068-.136-.131-.275-.212-.4a2.517,2.517,0,1,0-2.47,3.792c.338.049.681.066,1.02.108a6.9,6.9,0,0,1,2.244,13.127A7.071,7.071,0,0,0,117.145,318.438Z" transform="translate(-10.504 0)" fill="#d29e33"/>
    <path id="Path_3313" data-name="Path 3313" d="M198.864,418.687a2.338,2.338,0,0,1-2.381,2.255,2.314,2.314,0,0,1-2.2-2.31,2.291,2.291,0,1,1,4.582.055Z" transform="translate(-61.369 -64.479)" fill="#d29e33"/>
  </g>
</svg>
