<svg xmlns="http://www.w3.org/2000/svg" width="102.389" height="102.435" viewBox="0 0 102.389 102.435">
  <g id="Icon-14" transform="translate(-523.575 -51.883)">
    <path id="Path_3303" data-name="Path 3303" d="M625.464,61.1v46.732a2.5,2.5,0,0,0-.179.441,10.053,10.053,0,0,1-9.82,8.295c-1.682.039-3.366-.015-5.048.036a1.454,1.454,0,0,0-.923.5c-.746.87-1.343,1.88-2.153,2.68-3.24,3.2-6.548,6.33-9.8,9.519a1.686,1.686,0,0,0-.492,1.241c.631,3.9,1.392,7.788,1.987,11.7a17.075,17.075,0,0,1,.325,5.567,7.534,7.534,0,0,1-10.988,5.067q-6.294-3.216-12.536-6.533a1.941,1.941,0,0,0-2.079-.049c-4.155,2.224-8.341,4.387-12.533,6.541a7.67,7.67,0,0,1-11.172-8.177q1.164-6.973,2.431-13.928a1.414,1.414,0,0,0-.482-1.463q-5.077-4.859-10.1-9.772a11.069,11.069,0,0,1-1.741-2.255,1.138,1.138,0,0,0-1.156-.665c-1.716.023-3.433.039-5.147-.012a9.99,9.99,0,0,1-9.75-9.779q-.093-22.274,0-44.548a9.328,9.328,0,0,1,4.787-8.269,25.664,25.664,0,0,1,3.891-1.576h83.959a4.719,4.719,0,0,0,.53.194,10.06,10.06,0,0,1,7.988,7.99A4.565,4.565,0,0,0,625.464,61.1ZM622.091,77.8H527.473c0,9.774-.063,19.473.036,29.17a6.406,6.406,0,0,0,5.726,6.134c1.987.2,4.01.037,6.049.037.036-.181.065-.338.1-.494a7.519,7.519,0,0,1,6.9-6.441c4.568-.662,9.134-1.334,13.707-1.956a1.866,1.866,0,0,0,1.61-1.182c1.992-4.088,4.05-8.143,6.066-12.219,1.461-2.953,3.767-4.651,7.1-4.651a7.525,7.525,0,0,1,7.107,4.647c2.03,4.105,4.1,8.19,6.108,12.307a1.711,1.711,0,0,0,1.467,1.078q7.1.98,14.2,2.016a7.089,7.089,0,0,1,5.275,3.3A27.113,27.113,0,0,1,610.5,113.2c1.3,0,2.816,0,4.329,0,4.481-.011,7.263-2.806,7.265-7.309q.005-13.513,0-27.026Zm-15.23,36.029a4.2,4.2,0,0,0-3.685-4.221c-4.859-.713-9.716-1.441-14.584-2.1a4.305,4.305,0,0,1-3.527-2.637c-2.052-4.2-4.171-8.376-6.243-12.57a4.665,4.665,0,0,0-2.468-2.443,4.314,4.314,0,0,0-5.546,2.3q-3.246,6.446-6.44,12.919a4.026,4.026,0,0,1-3.262,2.392c-4.8.669-9.588,1.411-14.388,2.074a4.264,4.264,0,0,0-2.435,7.581c3.344,3.187,6.623,6.442,9.99,9.6a4.333,4.333,0,0,1,1.523,4.59c-.168.634-.226,1.3-.338,1.947q-1.024,5.894-2.05,11.786a4.184,4.184,0,0,0,1.786,4.58,4.28,4.28,0,0,0,4.677.106c4.233-2.215,8.487-4.39,12.705-6.634a4.352,4.352,0,0,1,4.411.006c4.192,2.223,8.421,4.376,12.617,6.592a4.324,4.324,0,0,0,4.927-.193,4.275,4.275,0,0,0,1.584-4.582c-.8-4.577-1.551-9.164-2.4-13.732a4.307,4.307,0,0,1,1.368-4.273c3.426-3.245,6.793-6.55,10.2-9.817A4.4,4.4,0,0,0,606.86,113.832Zm15.351-49.638a25.01,25.01,0,0,0-.447-3.605c-.832-3.04-3.464-4.831-6.9-4.831q-40.1,0-80.191,0c-.264,0-.528,0-.792.012a6.85,6.85,0,0,0-6.262,8.426Zm-.146,3.479H527.529v6.6h94.536Z" transform="translate(0 0)" fill="#fec844" stroke="#fec844" stroke-width="1"/>
    <path id="Path_3304" data-name="Path 3304" d="M552.385,118.049q4.693,0,9.388,0a6.352,6.352,0,0,1,.986.036,1.538,1.538,0,0,1,1.39,1.443,1.563,1.563,0,0,1-1.023,1.731,1.978,1.978,0,0,1-.766.16q-9.981.013-19.962,0a1.672,1.672,0,0,1-1.825-1.452,1.644,1.644,0,0,1,1.831-1.91C545.731,118.037,549.058,118.05,552.385,118.049Z" transform="translate(-8 -31.854)" fill="#fec844" stroke="#fec844" stroke-width="1"/>
    <path id="Path_3305" data-name="Path 3305" d="M547.16,137.77c-1.547,0-3.094.014-4.642,0-1.273-.015-1.976-.647-1.957-1.707.018-1.014.716-1.655,1.925-1.662q4.79-.031,9.58,0c1.226.007,2,.717,1.978,1.729-.021.992-.748,1.626-1.946,1.64C550.453,137.784,548.807,137.77,547.16,137.77Z" transform="translate(-8.003 -39.779)" fill="#fec844" stroke="#fec844" stroke-width="1"/>
  </g>
</svg>
