<svg xmlns="http://www.w3.org/2000/svg" width="114.221" height="93.246" viewBox="0 0 114.221 93.246">
  <g id="Icon-11" transform="translate(-708.518 -297.073)">
    <path id="Path_3330" data-name="Path 3330" d="M708.518,357.14a2.735,2.735,0,0,1,2.733-1.862c9.737.024,19.474,0,29.211.027a19.792,19.792,0,0,1,14.372,6.1q11.088,11.066,22.148,22.162c3.384,3.407,3.87,7.349,1.826,11.817.436.021.817.056,1.2.056,6.169,0,12.338-.014,18.507.008,4.66.016,7.956,2.425,9.17,6.638a8.864,8.864,0,0,1-7.581,11.073c-1,.082-2,.129-3,.129-9.775.01-19.55-.079-29.322.042a20.616,20.616,0,0,1-12.877-4.08c-7.687-5.6-15.529-10.98-23.274-16.5a9.107,9.107,0,0,0-5.6-1.79c-4.793.058-9.588,0-14.382.028a2.874,2.874,0,0,1-3.127-1.943Zm19.246,29.416c2.748.187,4.955,1.494,7.1,3.022,7.751,5.513,15.558,10.946,23.292,16.482a14.5,14.5,0,0,0,8.841,2.79c10.333-.06,20.667-.02,31-.026a11.777,11.777,0,0,0,1.777-.107,4.261,4.261,0,0,0,3.541-3,4.51,4.51,0,0,0-4.661-5.832c-9.181.064-18.363.023-27.544.03a9.743,9.743,0,0,1-6.537-2.133c-3.931-3.349-7.768-6.81-11.638-10.23a2.473,2.473,0,0,1-.416-.521,2.232,2.232,0,0,1,.22-2.681,2.17,2.17,0,0,1,2.648-.423,6.362,6.362,0,0,1,1.065.8c2.335,2.073,4.654,4.164,6.992,6.234a51.85,51.85,0,0,0,3.978,3.4c3.036,2.182,6.922,1.019,7.914-2.3a5.038,5.038,0,0,0-1.452-5.3q-11.155-11.162-22.32-22.314a15.549,15.549,0,0,0-11.43-4.7c-3.866.014-7.732,0-11.6,0-.248,0-.5.037-.777.059ZM713.055,359.8v26.615H723.17V359.8Z" transform="translate(0 -23.01)" fill="#d29e33"/>
    <path id="Path_3331" data-name="Path 3331" d="M861.176,318.511c-.53.61-1.023,1.258-1.6,1.823q-5.133,5.041-10.31,10.037a1.652,1.652,0,0,0-.53,1.67c.874,4.937,1.722,9.878,2.576,14.818a2.484,2.484,0,0,1-.867,2.795,2.566,2.566,0,0,1-2.834-.128c-4.431-2.344-8.88-4.653-13.3-7.014a1.61,1.61,0,0,0-1.736,0c-4.388,2.346-8.8,4.641-13.2,6.969-1.006.533-2.01.876-3.02.105-.957-.729-.943-1.723-.747-2.826.875-4.937,1.676-9.886,2.552-14.822a1.515,1.515,0,0,0-.525-1.544c-3.584-3.461-7.133-6.959-10.716-10.42-.827-.8-1.446-1.64-1.048-2.838.384-1.157,1.357-1.432,2.453-1.587,4.891-.693,9.772-1.451,14.666-2.121a1.8,1.8,0,0,0,1.585-1.114c2.206-4.542,4.448-9.065,6.692-13.589.7-1.411,1.81-2.018,2.925-1.423a3.953,3.953,0,0,1,1.528,1.644c2.231,4.4,4.405,8.839,6.56,13.282a1.872,1.872,0,0,0,1.64,1.206c5.005.673,10,1.456,15,2.153a3.122,3.122,0,0,1,2.258,1.587Zm-14.931,25.24c-.746-4.329-1.431-8.428-2.167-12.517a2.958,2.958,0,0,1,.914-2.913c2.74-2.62,5.434-5.289,8.164-7.921a5.748,5.748,0,0,1,1.039-.645,2.476,2.476,0,0,0-1.133-.515c-3.785-.548-7.568-1.113-11.359-1.619a3.108,3.108,0,0,1-2.656-1.876c-1.645-3.45-3.37-6.863-5.067-10.289-.155-.313-.331-.617-.555-1.033-1.932,3.907-3.808,7.658-5.64,11.429a2.8,2.8,0,0,1-2.278,1.722c-1.692.228-3.383.472-5.074.718-2.487.362-4.973.73-7.625,1.12.373.391.616.66.874.912,2.712,2.65,5.408,5.316,8.15,7.934a2.938,2.938,0,0,1,.984,2.891c-.372,1.969-.688,3.95-1.024,5.926-.364,2.144-.724,4.288-1.117,6.613.522-.255.853-.407,1.176-.576,3.222-1.688,6.471-3.329,9.651-5.094a3.578,3.578,0,0,1,3.85-.021C838.9,339.949,842.5,341.783,846.245,343.751Z" transform="translate(-38.437 0)" fill="#d29e33"/>
    <path id="Path_3332" data-name="Path 3332" d="M774.217,394.43a2.216,2.216,0,1,1-2.206-2.193A2.221,2.221,0,0,1,774.217,394.43Z" transform="translate(-24.22 -37.621)" fill="#d29e33"/>
  </g>
</svg>
