<svg xmlns="http://www.w3.org/2000/svg" width="12.16" height="16.537" viewBox="0 0 12.16 16.537">
  <path id="Icon_awesome-btc" data-name="Icon awesome-btc" d="M10.162,7.837A2.422,2.422,0,0,0,11.5,5.211C11.323,3.359,9.8,2.738,7.786,2.565V0H6.219V2.494c-.407,0-.824.01-1.242.02V0H3.41V2.565c-.576.017-1.247.009-3.145,0V4.234c1.238-.022,1.887-.1,2.036.692v7.023c-.094.63-.6.539-1.72.519L.265,14.33c2.858,0,3.145.01,3.145.01v2.2H4.977V14.371c.427.01.845.01,1.242.01v2.156H7.786v-2.2c2.626-.143,4.381-.8,4.615-3.277A2.659,2.659,0,0,0,10.162,7.837ZM5.008,4.346c.885,0,3.654-.275,3.654,1.567,0,1.761-2.768,1.557-3.654,1.557V4.346Zm0,8.132V9.038c1.059,0,4.3-.3,4.3,1.72C9.307,12.7,6.066,12.478,5.008,12.478Z" transform="translate(-0.265)" fill="#fff"/>
</svg>
