<svg xmlns="http://www.w3.org/2000/svg" width="83" height="51.938" viewBox="0 0 83 51.938">
  <g id="Icon-7" transform="translate(-2.5 -6.031)" fill="#7b7b7b" fill-rule="evenodd">
    <path d="M 72.39473724365234 56.96910095214844 L 15.60526275634766 56.96910095214844 C 12.3710298538208 56.96910095214844 9.330607414245605 55.71501159667969 7.044085025787354 53.43785858154297 C 4.758640766143799 51.16176986694336 3.499996185302734 48.13579177856445 3.499996185302734 44.9173469543457 L 3.499996185302734 8.701558113098145 L 22.41316223144531 27.53749084472656 L 23.11881828308105 28.24026870727539 L 23.8244743347168 27.53749084472656 L 44.00218963623047 7.442202568054199 L 64.18020629882812 27.53749084472656 L 64.88587188720703 28.24025726318359 L 65.59152984619141 27.53747940063477 L 84.5 8.706011772155762 L 84.5 44.9173469543457 C 84.5 48.13581085205078 83.24137115478516 51.16178894042969 80.95597076416016 53.43785858154297 C 78.66947174072266 55.71501159667969 75.62904357910156 56.96910095214844 72.39473724365234 56.96910095214844 Z M 10.23684024810791 24.84062385559082 L 10.23684024810791 27.24789047241211 L 10.23684024810791 44.9173469543457 C 10.23684024810791 47.86766815185547 12.64510726928711 50.26793670654297 15.60526275634766 50.26793670654297 L 72.39473724365234 50.26793670654297 C 75.35489654541016 50.26793670654297 77.76315307617188 47.86766815185547 77.76315307617188 44.9173469543457 L 77.76315307617188 27.25224685668945 L 77.76315307617188 24.84493446350098 L 76.05748748779297 26.5437126159668 L 64.88584899902344 37.67014694213867 L 44.70783996582031 17.5748233795166 L 44.0021858215332 16.87205696105957 L 43.29652786254883 17.5748233795166 L 23.11882209777832 37.67014694213867 L 11.94250774383545 26.53934669494629 L 10.23684024810791 24.84062385559082 Z" stroke="none"/>
    <path d="M 44.00219345092773 8.853515625 L 23.11880493164062 29.65159225463867 L 4.499992370605469 11.10878753662109 L 4.499992370605469 44.91734313964844 C 4.499992370605469 47.86790466308594 5.654106140136719 50.64224243164062 7.749748229980469 52.72929000854492 C 9.847549438476562 54.81851577758789 12.63735961914062 55.96910095214844 15.60525512695312 55.96910095214844 L 72.39472961425781 55.96910095214844 C 75.36269378662109 55.96910095214844 78.15253448486328 54.81851577758789 80.25030517578125 52.72930145263672 C 82.34589385986328 50.64226531982422 83.5 47.86792755126953 83.5 44.91734313964844 L 83.5 11.11327362060547 L 64.88587951660156 29.65157699584961 L 44.00219345092773 8.853515625 M 64.88581848144531 36.25879669189453 L 78.76314544677734 22.43761444091797 L 78.76314544677734 44.91734313964844 C 78.76314544677734 48.4190673828125 75.90628051757812 51.26792907714844 72.39472961425781 51.26792907714844 L 15.60525512695312 51.26792907714844 C 12.09369659423828 51.26792907714844 9.236831665039062 48.4190673828125 9.236831665039062 44.91734313964844 L 9.236831665039062 22.43336486816406 L 23.11882019042969 36.25881195068359 L 44.00217056274414 15.46072769165039 L 64.88581848144531 36.25879669189453 M 44.00218200683594 6.030876159667969 L 64.88585662841797 26.82892608642578 L 85.5 6.298740386962891 L 85.5 44.91734313964844 C 85.5 52.12582778930664 79.63277435302734 57.96910095214844 72.39472961425781 57.96910095214844 L 15.60525512695312 57.96910095214844 C 8.367393493652344 57.96910095214844 2.499992370605469 52.12582778930664 2.499992370605469 44.91734313964844 L 2.499992370605469 6.294303894042969 L 23.11880493164062 26.82892608642578 L 44.00218200683594 6.030876159667969 Z M 64.88585662841797 39.08147811889648 L 44.00218200683594 18.28337860107422 L 23.11880493164062 39.08147811889648 L 11.23683166503906 27.24789047241211 L 11.23683166503906 44.91734313964844 C 11.23683166503906 47.32017517089844 13.19261932373047 49.26792907714844 15.60525512695312 49.26792907714844 L 72.39472961425781 49.26792907714844 C 74.80741119384766 49.26792907714844 76.76314544677734 47.32017517089844 76.76314544677734 44.91734313964844 L 76.76314544677734 27.25223922729492 L 64.88585662841797 39.08147811889648 Z" stroke="none" fill="#fff"/>
  </g>
</svg>
