<svg id="Icon-6_colr" data-name="Icon-6 colr" xmlns="http://www.w3.org/2000/svg" width="94.059" height="94.059" viewBox="0 0 94.059 94.059">
  <path id="Path_3351" data-name="Path 3351" d="M48.315,0A20.853,20.853,0,0,1,52.18,1.754a8.142,8.142,0,0,1,3.4,8.536,8.246,8.246,0,0,1-6.2,6.791c-.817.237-.934.6-1.021,1.366-.155,1.37.433,1.952,1.61,2.5,6.865,3.2,13.681,6.5,20.535,9.728a2.171,2.171,0,0,1,1.429,2.265c-.049,3.854-.019,7.709-.019,11.563v1.14c1.561,0,3.044.029,4.523-.04.172-.008.379-.541.469-.86a8.731,8.731,0,0,1,16.945.416c.047.2.132.389.2.583v2.572c-.082.254-.179.5-.245.762A8.726,8.726,0,0,1,85.4,55.739a8.623,8.623,0,0,1-8.458-6.455c-.189-.7-.472-.916-1.176-.882-1.219.061-2.443.017-3.776.017-.023.342-.058.633-.06.923-.008,1.1.014,2.2-.011,3.306-.024,1.036-.532,1.587-1.39,1.577s-1.317-.561-1.356-1.614c-.01-.275,0-.551,0-.826V34.44c-.537.254-.936.442-1.334.632q-9.356,4.454-18.717,8.9a1.053,1.053,0,0,0-.718,1.1q.028,12.445.015,24.89c0,.237.037.474.067.821.68-.31,1.287-.576,1.885-.861C56.35,67.066,62.33,64.2,68.332,61.371a1.213,1.213,0,0,0,.844-1.393A6.24,6.24,0,0,1,69.2,58.6,1.259,1.259,0,0,1,70.573,57.4a1.208,1.208,0,0,1,1.3,1.175,16.877,16.877,0,0,1-.029,3.386,2.129,2.129,0,0,1-1.127,1.268c-6.382,3.09-12.79,6.13-19.19,9.182-.8.381-1.588.793-2.4,1.136a.971.971,0,0,0-.72,1.1c.06.637-.165,1.412.128,1.882.248.4,1.059.444,1.617.653A8.736,8.736,0,0,1,48.832,93.87c-.237.049-.467.125-.7.188H45.743c-.772-.264-1.572-.467-2.312-.8a8.686,8.686,0,0,1,1.255-16.286c.853-.225.92-.629,1-1.38a2.122,2.122,0,0,0-1.534-2.461c-4.093-1.852-8.133-3.824-12.183-5.77-.369-.177-.862-.451-.951-.774a2.116,2.116,0,0,1,.151-1.516,1.25,1.25,0,0,1,1.728-.3q2.862,1.35,5.717,2.712c2.285,1.087,4.568,2.176,6.973,3.322.026-.413.059-.7.059-.99q0-12.308.015-24.616a1.183,1.183,0,0,0-.765-1.264q-9.578-4.523-19.133-9.094c-.24-.114-.492-.2-.872-.359v1.013c0,8.175.011,16.35-.019,24.524a1.224,1.224,0,0,0,.9,1.36,16.7,16.7,0,0,1,1.986.945,1.393,1.393,0,0,1,.662,1.866,1.354,1.354,0,0,1-1.81.618c-1.257-.557-2.493-1.165-3.723-1.78-.671-.336-.755-.974-.754-1.649q.01-5.878,0-11.757V48.425c-1.532,0-2.962-.031-4.388.034-.2.009-.478.454-.564.744a8.552,8.552,0,0,1-6.253,6.248A8.7,8.7,0,0,1,.2,48.9a6.159,6.159,0,0,0-.2-.585V45.743a2.363,2.363,0,0,0,.171-.4,8.725,8.725,0,0,1,17.024-.405c.055.2.1.41.168.669h4.773V44.488c0-3.765.046-7.53-.025-11.293a2.332,2.332,0,0,1,1.624-2.606c1.2-.452,2.32-1.1,3.486-1.631a1.391,1.391,0,0,1,2.03.55c.365.753.056,1.457-.852,1.925-.462.238-.931.46-1.395.694-.047.024-.078.08-.16.167l9.445,4.5c3.365,1.6,6.725,3.22,10.1,4.8a1.462,1.462,0,0,0,1.085.085q9.744-4.593,19.457-9.248a3.3,3.3,0,0,0,.329-.227L48.408,23.214v1.967q0,2.249,0,4.5c0,1.424-.428,2.077-1.357,2.093s-1.4-.654-1.4-2.05q0-2.663,0-5.326V23.244c-.762.355-1.389.642-2.012.938-3.2,1.522-6.4,3.058-9.608,4.556a2.006,2.006,0,0,1-1.377.241,1.942,1.942,0,0,1-.988-1.145c-.178-.651.281-1.131.9-1.423,1.988-.943,3.969-1.9,5.954-2.848,2.1-1,4.18-2.028,6.3-2.974a1.256,1.256,0,0,0,.851-1.392c-.044-1.686-.01-1.687-1.606-2.278A8.721,8.721,0,0,1,44.894.274C45.181.2,45.46.092,45.743,0ZM8.72,52.983a5.954,5.954,0,1,0-5.962-5.937A5.955,5.955,0,0,0,8.72,52.983ZM85.344,41.075A5.954,5.954,0,1,0,91.3,47.018,5.955,5.955,0,0,0,85.344,41.075ZM41.071,8.747a5.958,5.958,0,1,0,5.913-5.988A5.963,5.963,0,0,0,41.071,8.747Zm11.912,76.7A5.955,5.955,0,1,0,46.842,91.3,5.96,5.96,0,0,0,52.983,85.45Z" fill="#fec844"/>
</svg>
