<svg xmlns="http://www.w3.org/2000/svg" width="76.155" height="50.77" viewBox="0 0 76.155 50.77">
  <g id="Icon-9" transform="translate(76.155) rotate(90)" fill="#7b7b7b" fill-rule="evenodd">
    <path d="M 25.38509178161621 75.6552734375 C 22.0254020690918 75.6552734375 18.76648139953613 74.99739837646484 15.69884204864502 73.69989776611328 C 12.7356014251709 72.44655609130859 10.07424163818359 70.65218353271484 7.788671970367432 68.36662292480469 C 5.503111839294434 66.08106994628906 3.708731889724731 63.41970825195312 2.455391883850098 60.45646667480469 C 1.157891750335693 57.38882827758789 0.5000017881393433 54.12988662719727 0.5000017881393433 50.77018737792969 L 0.5000017881393433 25.38509750366211 C 0.5000017881393433 22.02540588378906 1.157891750335693 18.76647758483887 2.455391883850098 15.6988468170166 C 3.708731889724731 12.7356071472168 5.503111839294434 10.07423686981201 7.788671970367432 7.788666725158691 C 10.07424163818359 5.503106594085693 12.7356014251709 3.708726644515991 15.69884204864502 2.455386638641357 C 18.76648139953613 1.157886743545532 22.0254020690918 0.4999967217445374 25.38509178161621 0.4999967217445374 C 28.74479103088379 0.4999967217445374 32.00373077392578 1.157886743545532 35.07137298583984 2.455386638641357 C 38.03461074829102 3.708726644515991 40.69597244262695 5.503106594085693 42.98153305053711 7.788666725158691 C 45.26709365844727 10.07423686981201 47.06146240234375 12.73559665679932 48.31480026245117 15.6988468170166 C 49.61230087280273 18.76647758483887 50.27018356323242 22.02540588378906 50.27018356323242 25.38509750366211 L 50.27018356323242 50.77018737792969 C 50.27018356323242 54.12989807128906 49.61230087280273 57.38882827758789 48.31480026245117 60.45646667480469 C 47.06146240234375 63.41970825195312 45.26709365844727 66.08106994628906 42.98153305053711 68.36662292480469 C 40.69597244262695 70.65218353271484 38.03461074829102 72.44655609130859 35.07137298583984 73.69989776611328 C 32.00373077392578 74.99739837646484 28.74480247497559 75.6552734375 25.38509178161621 75.6552734375 Z M 25.38509178161621 5.846276760101318 C 14.61135196685791 5.846276760101318 5.846271991729736 14.61135673522949 5.846271991729736 25.38509750366211 L 5.846271991729736 50.77018737792969 C 5.846271991729736 61.54392623901367 14.61135196685791 70.30900573730469 25.38509178161621 70.30900573730469 C 36.15883255004883 70.30900573730469 44.92391204833984 61.54392623901367 44.92391204833984 50.77018737792969 L 44.92391204833984 25.38509750366211 C 44.92391204833984 14.61135673522949 36.15883255004883 5.846276760101318 25.38509178161621 5.846276760101318 Z" stroke="none"/>
    <path d="M 25.38509178161621 1 C 22.09267997741699 1 18.8992919921875 1.644599914550781 15.89362335205078 2.9158935546875 C 12.9899787902832 4.144027709960938 10.38203811645508 5.902412414550781 8.142223358154297 8.142227172851562 C 5.902423858642578 10.38203430175781 4.144023895263672 12.98998260498047 2.9158935546875 15.89361572265625 C 1.644603729248047 18.8992919921875 1.000003814697266 22.09268188476562 1.000003814697266 25.38509368896484 L 1.000003814697266 50.77017974853516 C 1.000003814697266 54.06260299682617 1.644603729248047 57.25600433349609 2.9158935546875 60.26168060302734 C 4.144023895263672 63.16532516479492 5.902423858642578 65.77326965332031 8.142223358154297 68.01306915283203 C 10.38203811645508 70.25286865234375 12.9899787902832 72.01126098632812 15.89361572265625 73.23939514160156 C 18.8992919921875 74.51067352294922 22.09267997741699 75.1552734375 25.38509178161621 75.1552734375 C 28.67751312255859 75.1552734375 31.87091445922852 74.51067352294922 34.87659072875977 73.23939514160156 C 37.78023529052734 72.01126098632812 40.38817977905273 70.25286865234375 42.62797927856445 68.01306915283203 C 44.86778259277344 65.77326965332031 46.62617111206055 63.16532516479492 47.85430145263672 60.26168060302734 C 49.12557983398438 57.25600433349609 49.77017974853516 54.06260299682617 49.77017974853516 50.77017974853516 L 49.77017974853516 25.38509368896484 C 49.77017974853516 22.09268188476562 49.12557983398438 18.8992805480957 47.85430145263672 15.89361572265625 C 46.62617111206055 12.98997116088867 44.86778259277344 10.38202667236328 42.62797927856445 8.142227172851562 C 40.38817977905273 5.902412414550781 37.78023529052734 4.144027709960938 34.87659072875977 2.9158935546875 C 31.87091445922852 1.644599914550781 28.67751312255859 1 25.38509178161621 1 M 25.38509178161621 70.80900573730469 C 14.33564758300781 70.80900573730469 5.346267700195312 61.81962585449219 5.346267700195312 50.77017974853516 L 5.346267700195312 25.38509368896484 C 5.346267700195312 14.33564758300781 14.33564758300781 5.346267700195312 25.38509178161621 5.346267700195312 C 36.43452453613281 5.346267700195312 45.42390441894531 14.33564758300781 45.42390441894531 25.38509368896484 L 45.42390441894531 50.77017974853516 C 45.42390441894531 61.81962585449219 36.43452453613281 70.80900573730469 25.38509178161621 70.80900573730469 M 25.38509178161621 0 C 39.40496063232422 0 50.77017974853516 11.36528015136719 50.77017974853516 25.38509368896484 L 50.77017974853516 50.77017974853516 C 50.77017974853516 64.79004669189453 39.40496063232422 76.1552734375 25.38509178161621 76.1552734375 C 11.36529159545898 76.1552734375 3.814697265625e-06 64.79004669189453 3.814697265625e-06 50.77017974853516 L 3.814697265625e-06 25.38509368896484 C 3.814697265625e-06 11.36528015136719 11.36529159545898 0 25.38509178161621 0 Z M 25.38509178161621 69.80900573730469 C 35.8999137878418 69.80900573730469 44.42390441894531 61.28500366210938 44.42390441894531 50.77017974853516 L 44.42390441894531 25.38509368896484 C 44.42390441894531 14.87023544311523 35.8999137878418 6.346267700195312 25.38509178161621 6.346267700195312 C 14.87023544311523 6.346267700195312 6.346267700195312 14.87023544311523 6.346267700195312 25.38509368896484 L 6.346267700195312 50.77017974853516 C 6.346267700195312 61.28500366210938 14.87023544311523 69.80900573730469 25.38509178161621 69.80900573730469 Z" stroke="none" fill="#fff"/>
  </g>
</svg>
