<svg xmlns="http://www.w3.org/2000/svg" width="66.62" height="66.62" viewBox="0 0 66.62 66.62">
  <g id="Icon-8" transform="translate(-558.137 -5853.604)">
    <g id="Path_512" data-name="Path 512" transform="translate(585.774 5849.604)" fill="#7b7b7b">
      <path d="M 29.65506362915039 27.98258399963379 L 23.32753372192383 27.98258399963379 L 23.32753372192383 20.65505409240723 L 23.32753372192383 19.65505409240723 L 22.32753372192383 19.65505409240723 L 15.00000286102295 19.65505409240723 L 15.00000286102295 13.32752513885498 L 22.32753372192383 13.32752513885498 L 23.32753372192383 13.32752513885498 L 23.32753372192383 12.32752513885498 L 23.32753372192383 5.000004768371582 L 29.65506362915039 5.000004768371582 L 29.65506362915039 12.32752513885498 L 29.65506362915039 13.32752513885498 L 30.65506362915039 13.32752513885498 L 37.98258209228516 13.32752513885498 L 37.98258209228516 19.65505409240723 L 30.65506362915039 19.65505409240723 L 29.65506362915039 19.65505409240723 L 29.65506362915039 20.65505409240723 L 29.65506362915039 27.98258399963379 Z" stroke="none"/>
      <path d="M 24.32753372192383 5.999994277954102 L 24.32753372192383 14.32752418518066 L 16.00000381469727 14.32752418518066 L 16.00000381469727 18.65505599975586 L 24.32753372192383 18.65505599975586 L 24.32753372192383 26.98258590698242 L 28.65505218505859 26.98258590698242 L 28.65505218505859 18.65505599975586 L 36.98258209228516 18.65505599975586 L 36.98258209228516 14.32752418518066 L 28.65505218505859 14.32752418518066 L 28.65505218505859 5.999994277954102 L 24.32753372192383 5.999994277954102 M 22.32753372192383 3.999994277954102 L 30.65505218505859 3.999994277954102 L 30.65505218505859 12.32752418518066 L 38.98258209228516 12.32752418518066 L 38.98258209228516 20.65505599975586 L 30.65505218505859 20.65505599975586 L 30.65505218505859 28.98258590698242 L 22.32753372192383 28.98258590698242 L 22.32753372192383 20.65505599975586 L 14.00000381469727 20.65505599975586 L 14.00000381469727 12.32752418518066 L 22.32753372192383 12.32752418518066 L 22.32753372192383 3.999994277954102 Z" stroke="none" fill="#fff"/>
    </g>
    <g id="Path_513" data-name="Path 513" transform="translate(554.137 5855.932)" fill="#7b7b7b" fill-rule="evenodd">
      <path d="M 61.29270172119141 63.29270172119141 L 5.000000953674316 63.29270172119141 L 5.000000953674316 7.000000953674316 L 36.31011962890625 7.000000953674316 L 36.31011962890625 30.98259162902832 L 36.31011962890625 31.98259162902832 L 37.31011962890625 31.98259162902832 L 61.29270172119141 31.98259162902832 L 61.29270172119141 63.29270172119141 Z M 36.31011962890625 38.31011962890625 L 36.31011962890625 39.31011962890625 L 36.31011962890625 55.96517181396484 L 36.31011962890625 56.96517181396484 L 37.31011962890625 56.96517181396484 L 53.96517944335938 56.96517181396484 L 54.96517944335938 56.96517181396484 L 54.96517944335938 55.96517181396484 L 54.96517944335938 39.31011962890625 L 54.96517944335938 38.31011962890625 L 53.96517944335938 38.31011962890625 L 37.31011962890625 38.31011962890625 L 36.31011962890625 38.31011962890625 Z M 11.32753086090088 38.31011962890625 L 11.32753086090088 39.31011962890625 L 11.32753086090088 55.96517181396484 L 11.32753086090088 56.96517181396484 L 12.32753086090088 56.96517181396484 L 28.98259162902832 56.96517181396484 L 29.98259162902832 56.96517181396484 L 29.98259162902832 55.96517181396484 L 29.98259162902832 39.31011962890625 L 29.98259162902832 38.31011962890625 L 28.98259162902832 38.31011962890625 L 12.32753086090088 38.31011962890625 L 11.32753086090088 38.31011962890625 Z M 11.32753086090088 13.32753086090088 L 11.32753086090088 14.32753086090088 L 11.32753086090088 30.98259162902832 L 11.32753086090088 31.98259162902832 L 12.32753086090088 31.98259162902832 L 28.98259162902832 31.98259162902832 L 29.98259162902832 31.98259162902832 L 29.98259162902832 30.98259162902832 L 29.98259162902832 14.32753086090088 L 29.98259162902832 13.32753086090088 L 28.98259162902832 13.32753086090088 L 12.32753086090088 13.32753086090088 L 11.32753086090088 13.32753086090088 Z" stroke="none"/>
      <path d="M 6 8 L 6 62.29270172119141 L 60.29270172119141 62.29270172119141 L 60.29270172119141 32.98258972167969 L 35.31011199951172 32.98258972167969 L 35.31011199951172 8 L 6 8 M 30.98258972167969 32.98258972167969 L 10.32752990722656 32.98258972167969 L 10.32752990722656 12.32752990722656 L 30.98258972167969 12.32752990722656 L 30.98258972167969 32.98258972167969 M 30.98258972167969 57.96517181396484 L 10.32752990722656 57.96517181396484 L 10.32752990722656 37.31011199951172 L 30.98258972167969 37.31011199951172 L 30.98258972167969 57.96517181396484 M 55.96517181396484 57.96517181396484 L 35.31011199951172 57.96517181396484 L 35.31011199951172 37.31011199951172 L 55.96517181396484 37.31011199951172 L 55.96517181396484 57.96517181396484 M 4 6 L 37.31011199951172 6 L 37.31011199951172 30.98258972167969 L 62.29270172119141 30.98258972167969 L 62.29270172119141 64.29270172119141 L 4 64.29270172119141 L 4 6 Z M 28.98258972167969 30.98258972167969 L 28.98258972167969 14.32752990722656 L 12.32752990722656 14.32752990722656 L 12.32752990722656 30.98258972167969 L 28.98258972167969 30.98258972167969 Z M 28.98258972167969 55.96517181396484 L 28.98258972167969 39.31011199951172 L 12.32752990722656 39.31011199951172 L 12.32752990722656 55.96517181396484 L 28.98258972167969 55.96517181396484 Z M 53.96517181396484 55.96517181396484 L 53.96517181396484 39.31011199951172 L 37.31011199951172 39.31011199951172 L 37.31011199951172 55.96517181396484 L 53.96517181396484 55.96517181396484 Z" stroke="none" fill="#fff"/>
    </g>
  </g>
</svg>
