<svg xmlns="http://www.w3.org/2000/svg" width="74.147" height="58.496" viewBox="0 0 74.147 58.496">
  <g id="Icon-10" transform="translate(-752.615 -63.527)">
    <path id="Path_3306" data-name="Path 3306" d="M826.262,88.355a2.666,2.666,0,0,1-2.884,1.582c-1.249-.078-2.507-.017-3.811-.017.111,1.862.213,3.637.323,5.413q.47,7.587.944,15.174c.107,1.734.221,3.467.306,5.2a2.139,2.139,0,0,1-2.391,2.495q-7.5,0-14.994,0a2.145,2.145,0,0,1-2.363-2.46c.017-.587,0-1.175,0-1.805-7.359,6.391-15.834,8.874-25.416,6.938a27.611,27.611,0,0,1-17.4-11.333,28.626,28.626,0,0,1,4.8-38.734c12.1-10.309,31.291-8.811,41.271,4.36,1.58-2.246,3.16-4.478,4.722-6.721a2.206,2.206,0,0,1,2.1-1.08A2.309,2.309,0,0,1,813.2,68.5q3.948,5.642,7.916,11.27c1.3,1.849,2.6,3.7,3.895,5.549.432.62.834,1.261,1.249,1.892Zm-23.29,1.565c-1.4,0-2.707-.025-4.012.008a2.357,2.357,0,0,1-2.417-1.157,2.318,2.318,0,0,1,.406-2.641c1.565-2.183,3.075-4.406,4.653-6.581a.886.886,0,0,0-.04-1.276c-6.3-8.018-14.527-11.266-24.508-9.411a24.247,24.247,0,0,0-18.8,29.979c2.713,9.878,9.278,16.1,19.375,17.92,9.739,1.757,17.755-1.672,23.876-9.451a2.469,2.469,0,0,0,.462-1.287c.252-3.558.463-7.12.683-10.68C802.76,93.568,802.861,91.791,802.972,89.921Zm8.3-16.68-8.706,12.391c1,0,1.852-.013,2.7,0a2.117,2.117,0,0,1,2.146,2.186c0,.333-.025.666-.046,1q-.19,3.063-.383,6.127-.473,7.551-.944,15.1c-.079,1.271-.144,2.542-.216,3.823h10.9c-.071-1.278-.133-2.509-.21-3.74q-.683-10.936-1.367-21.871a2.187,2.187,0,0,1,2.477-2.63c.741,0,1.482,0,2.357,0Z" fill="#7b7b7b" stroke="#fff" stroke-width="1"/>
    <path id="Path_3307" data-name="Path 3307" d="M814.842,124.324c0,.86.008,1.639,0,2.418a2.138,2.138,0,0,1-2.1,2.3,2.164,2.164,0,0,1-2.192-2.3c-.011-.78,0-1.56,0-2.329-1-.138-1.948-.215-2.87-.406a7.237,7.237,0,0,1-4.1-2.546,2.143,2.143,0,1,1,3.156-2.9,4.293,4.293,0,0,0,3.485,1.462c1.688-.048,3.378,0,5.067-.014a2.671,2.671,0,0,0,2.847-2.72,2.708,2.708,0,0,0-2.867-2.714c-1.76-.01-3.521.013-5.281-.008a7.021,7.021,0,0,1-6.734-5.085,6.873,6.873,0,0,1,3.091-7.891,13.416,13.416,0,0,1,3.149-1.007,5.238,5.238,0,0,1,1.065-.064c0-.9-.027-1.75.006-2.6a2.135,2.135,0,0,1,2.16-2.111,2.113,2.113,0,0,1,2.123,2.133c.017.547,0,1.094.005,1.641,0,.282,0,.563,0,.883.659.083,1.269.13,1.868.24a7.817,7.817,0,0,1,5.3,3.536,2.169,2.169,0,0,1-.48,3.041,2.11,2.11,0,0,1-3.015-.562,4.194,4.194,0,0,0-3.833-1.9c-1.5.052-3,.006-4.5.012a2.735,2.735,0,0,0-2.927,2.731,2.768,2.768,0,0,0,2.968,2.706c1.808.007,3.617-.022,5.424.015A7.008,7.008,0,0,1,820.1,122.52a7.416,7.416,0,0,1-4.423,1.765C815.439,124.3,815.2,124.308,814.842,124.324Z" transform="translate(-30.819 -19.647)" fill="#7b7b7b" stroke="#fff" stroke-width="1"/>
  </g>
</svg>
