<svg xmlns="http://www.w3.org/2000/svg" width="86.268" height="83.658" viewBox="0 0 86.268 83.658">
  <g id="Icon-4" transform="translate(0 0)">
    <path id="Path_3348" data-name="Path 3348" d="M110.621,22.5c0-.393,0-.786,0-1.179-.042-4.545-.034-9.091-.146-13.634A4.108,4.108,0,0,1,115.6,3.416a.8.8,0,0,0,.2,0,2.437,2.437,0,0,0,.123-.319,3.706,3.706,0,0,1,2.957-3,4.091,4.091,0,0,1,4.071,1.4,4.525,4.525,0,0,1,.68,1.038c.136.277.261.382.582.332a4.312,4.312,0,0,1,5.125,4.253c.006.155,0,.31,0,.455a12.217,12.217,0,0,1,1.859.164,3.939,3.939,0,0,1,3.08,3.94q.074,7.2.142,14.408c.028,2.639.07,5.278.1,7.917a8.579,8.579,0,0,1-3.506,7.261,1.134,1.134,0,0,0-.446,1.025q.013,19.8.013,39.6c0,1.059-.451,1.664-1.307,1.74a1.384,1.384,0,0,1-1.557-1.151,6.3,6.3,0,0,1-.056-1.125q-.016-19.472-.038-38.943a4.125,4.125,0,0,1,1.712-3.582A5.5,5.5,0,0,0,131.59,34.2c-.011-3.314-.006-6.629-.042-9.943-.046-4.146-.13-8.292-.187-12.438a1.187,1.187,0,0,0-.54-1.115.9.9,0,0,0-1.454.675,6.277,6.277,0,0,0-.023.832q0,6.1,0,12.207a4.081,4.081,0,0,1-.069.827,1.44,1.44,0,0,1-2.836-.145,5.8,5.8,0,0,1-.018-.654q0-8.574,0-17.149a1.355,1.355,0,0,0-.932-1.489.97.97,0,0,0-1.441.811,6.191,6.191,0,0,0-.029.892q0,7.711,0,15.422a1.457,1.457,0,0,1-2.863.465,2.3,2.3,0,0,1-.052-.587q-.007-9.2-.02-18.4a1.6,1.6,0,0,0-.259-.931A1.267,1.267,0,0,0,119.389,3c-.573.186-.656.692-.656,1.211q0,4.287,0,8.574c0,3.454.015,6.908-.024,10.361a2.491,2.491,0,0,1-.468,1.342,1.2,1.2,0,0,1-1.466.316,1.345,1.345,0,0,1-.938-1.19,6.658,6.658,0,0,1-.017-.714q0-7.532,0-15.065a3.138,3.138,0,0,0-.034-.592A1.3,1.3,0,0,0,114.451,6.2a1.149,1.149,0,0,0-1.029,1.243c0,1.548,0,3.1.018,4.645q.119,8.156.25,16.312a2.747,2.747,0,0,1-.122,1.049,1.428,1.428,0,0,1-2.479.271,17.007,17.007,0,0,1-1.1-1.9c-1.025-1.9-2.039-3.811-3.058-5.717a1.1,1.1,0,0,0-1.168-.644,1.02,1.02,0,0,0-.941.859,1.438,1.438,0,0,0,.049.693q1.533,4.846,3.087,9.685c.313.981.578,1.98.932,2.946a4.162,4.162,0,0,0,2.775,2.653c.983.31,1.978.59,2.938.958,1.3.5,1.484.826,1.487,2.235q.035,20.214.071,40.427c0,.953-.362,1.516-1.084,1.691a1.47,1.47,0,0,1-1.837-1.6c-.015-2.342-.013-4.684-.015-7.026q-.011-12.117-.02-24.235c0-2.739-.034-5.477-.019-8.216a.762.762,0,0,0-.619-.841,24.74,24.74,0,0,1-3.4-1.372,6.87,6.87,0,0,1-3.207-4.2q-1.8-5.7-3.553-11.414a8.246,8.246,0,0,1-.5-2.411A3.893,3.893,0,0,1,105,18.609a4.05,4.05,0,0,1,4.419,1.949c.369.65.719,1.311,1.078,1.967Z" transform="translate(-78.494 0)" fill="#7b7b7b"/>
    <path id="Path_3349" data-name="Path 3349" d="M241.98,124.394c.026-.311.047-.438.046-.566-.04-3.115-.088-6.229-.121-9.344-.018-1.766-.016-3.532-.014-5.3a4.03,4.03,0,0,1,5.075-4.07c.057.013.117.016.223.029.049-.133.11-.271.151-.414a3.873,3.873,0,0,1,3.372-3,4.3,4.3,0,0,1,4.255,2.364c.192.406.379.545.849.455a4.31,4.31,0,0,1,4.895,3.963c.008.271,0,.542,0,.783a12.946,12.946,0,0,1,1.8.135,3.972,3.972,0,0,1,3.171,3.931q.093,7.8.182,15.6c.026,2.321.055,4.642.056,6.964a8.485,8.485,0,0,1-3.443,6.991,1.245,1.245,0,0,0-.526,1.105q.03,7.919.033,15.839c0,.238.008.477,0,.714a1.436,1.436,0,0,1-1.4,1.415,1.459,1.459,0,0,1-1.508-1.312,4.184,4.184,0,0,1-.015-.535q-.011-8.188-.023-16.375a3.588,3.588,0,0,1,1.534-3.058A5.705,5.705,0,0,0,263,135.856c-.021-3.314-.017-6.627-.054-9.94q-.068-6.159-.194-12.317a1.406,1.406,0,0,0-.281-.925,1.686,1.686,0,0,0-1.038-.394c-.435-.009-.61.393-.662.791a7.274,7.274,0,0,0-.055.949q0,6.1.016,12.206c0,1.062-.325,1.61-1.084,1.81a1.43,1.43,0,0,1-1.832-1.27c-.018-.2-.009-.4-.008-.6q.007-8.574.014-17.148a1.389,1.389,0,0,0-1.036-1.534.918.918,0,0,0-1.31.707,3.27,3.27,0,0,0-.054.768q0,7.771.01,15.541a1.487,1.487,0,1,1-2.954.037c0-2.937.007-5.875.009-8.812,0-3.216-.006-6.431.007-9.646a1.277,1.277,0,0,0-.549-1.176,1.073,1.073,0,0,0-1.818.854c-.02.237-.011.476-.011.714q.008,9.05.017,18.1a8.875,8.875,0,0,1-.033,1.011,1.4,1.4,0,0,1-1.485,1.245,1.338,1.338,0,0,1-1.375-1.347c-.024-2.382-.021-4.763-.023-7.145,0-2.957.009-5.914-.009-8.87a2.082,2.082,0,0,0-.263-1.008,1.144,1.144,0,0,0-2.13.62c.014,1.945.017,3.89.038,5.835q.058,5.3.134,10.595c.023,1.567.073,3.133.1,4.7.02,1.014-.307,1.54-1.071,1.75a1.572,1.572,0,0,1-1.84-.962c-1.258-2.317-2.5-4.644-3.745-6.967a3.193,3.193,0,0,0-.236-.412,1.1,1.1,0,0,0-1.944,1q1.971,6.235,3.95,12.469a4.39,4.39,0,0,0,3.17,3.021c1.044.3,2.071.674,3.083,1.069a1.571,1.571,0,0,1,1.034,1.632c.007,5.815.047,11.631.073,17.446a1.551,1.551,0,0,1-1.036,1.683,1.464,1.464,0,0,1-1.88-1.482c-.022-2.421-.021-4.843-.03-7.264-.012-3.017-.034-6.034-.026-9.051a.644.644,0,0,0-.512-.723,25.675,25.675,0,0,1-3.32-1.279,6.618,6.618,0,0,1-3.275-3.992c-1.248-3.888-2.453-7.79-3.705-11.677a5.989,5.989,0,0,1-.5-2.773,4.181,4.181,0,0,1,3.161-3.4,4.005,4.005,0,0,1,4.36,1.94C241.172,122.9,241.53,123.572,241.98,124.394Z" transform="translate(-179.648 -78.339)" fill="#7b7b7b"/>
    <path id="Path_3350" data-name="Path 3350" d="M8.7,184.069c0-1.929.007-3.691,0-5.453-.015-3.295-.061-6.59-.052-9.884.008-2.733,2.407-4.481,5.287-3.862.051-.134.116-.272.157-.416a3.922,3.922,0,0,1,3.489-3.031,4.311,4.311,0,0,1,4.074,2.274.861.861,0,0,0,1.062.563,4.271,4.271,0,0,1,4.743,4.253,3.748,3.748,0,0,0,.032.494,13.783,13.783,0,0,1,1.8.147,4.016,4.016,0,0,1,3.15,4.012c.045,6.073.137,12.146.19,18.22a54.04,54.04,0,0,1-.087,5.588,8.044,8.044,0,0,1-3.343,5.686,1.092,1.092,0,0,0-.5,1c.034.892.031,1.786.029,2.679a1.473,1.473,0,1,1-2.928-.006q-.013-1.489-.015-2.977a3.27,3.27,0,0,1,1.359-2.779,6.125,6.125,0,0,0,2.614-5.432c-.073-3.055-.038-6.113-.074-9.17-.051-4.226-.123-8.452-.193-12.678a1.6,1.6,0,0,0-.134-.688,1.032,1.032,0,0,0-1.1-.645c-.56.083-.73.538-.754,1.006-.048.931-.045,1.864-.045,2.8,0,3.474,0,6.947,0,10.421a1.434,1.434,0,0,1-1.494,1.612,1.394,1.394,0,0,1-1.378-1.233,4.655,4.655,0,0,1-.019-.594q0-8.515.009-17.029a1.535,1.535,0,0,0-.812-1.634c-.884-.416-1.569-.03-1.589.955-.024,1.19,0,2.381,0,3.572q0,6.193-.012,12.386a1.546,1.546,0,0,1-.819,1.532,1.384,1.384,0,0,1-1.416-.073,1.536,1.536,0,0,1-.7-1.475q.014-4.764.006-9.528c0-2.977-.035-5.955,0-8.931a1.4,1.4,0,0,0-1.3-1.363.863.863,0,0,0-.981.686,3.254,3.254,0,0,0-.082.823q-.016,9.319-.023,18.638a6.468,6.468,0,0,1-.015.654,1.439,1.439,0,0,1-2.868-.035c-.018-.217-.01-.436-.01-.655q0-7.414,0-14.828c0-.238,0-.477-.015-.714a1.294,1.294,0,0,0-1.318-1.318c-.677.037-1.075.531-1.068,1.378q.055,6.639.127,13.278c.033,2.639.113,5.278.146,7.918a1.409,1.409,0,0,1-2.023,1.389,2.642,2.642,0,0,1-.949-1.02c-1.178-2.135-2.311-4.295-3.46-6.445-.131-.245-.253-.5-.4-.73a1.122,1.122,0,0,0-1.456-.422,1.142,1.142,0,0,0-.567,1.36c1.33,4.193,2.642,8.393,4,12.576A4.255,4.255,0,0,0,10,199.788c1,.3,2,.618,2.979,1a1.837,1.837,0,0,1,1.278,1.98c-.055,1.167.035,2.341.054,3.511a1.472,1.472,0,1,1-2.918.035c-.019-.833-.039-1.667-.032-2.5a.565.565,0,0,0-.459-.64c-.795-.246-1.586-.511-2.36-.814a7.153,7.153,0,0,1-4.391-4.7c-1.218-3.835-2.395-7.683-3.614-11.517a5.771,5.771,0,0,1-.5-2.65A4.041,4.041,0,0,1,7.5,181.878C7.9,182.55,8.253,183.255,8.7,184.069Z" transform="translate(0 -124.318)" fill="#7b7b7b"/>
  </g>
</svg>
