<svg xmlns="http://www.w3.org/2000/svg" width="101" height="101.002" viewBox="0 0 101 101.002">
  <g id="Icon-18" transform="translate(-279.199 -316.576)">
    <path id="Path_3314" data-name="Path 3314" d="M380.2,443.846a2.7,2.7,0,0,1-2.682,1.4q-19.127-.051-38.255-.021c-.23,0-.461.008-.69-.005a1.956,1.956,0,0,1-1.965-1.93,1.92,1.92,0,0,1,1.987-2c2.694-.031,5.39-.011,8.085-.012h1.137c.078-.107.151-.161.15-.212-.1-3.244.179-6.559-.409-9.712-.827-4.426-3.824-7.295-8.14-8.662a1.764,1.764,0,0,0-1.329.219,14.706,14.706,0,0,1-16.768,0,1.843,1.843,0,0,0-1.419-.191c-4.793,1.623-7.741,4.935-8.313,9.975a77.415,77.415,0,0,0-.057,8.579h1.4c2.531,0,5.061-.007,7.592,0,1.432.005,2.31.788,2.288,2.005a1.993,1.993,0,0,1-2.262,1.933q-19.522.008-39.045,0c-1.541,0-2.272-.756-2.28-2.322-.009-2.038-.048-4.077.009-6.113a11.572,11.572,0,0,1,5.829-10.009c.3-.187.613-.358.917-.535a10.967,10.967,0,0,1,2.942-14.264A10.833,10.833,0,0,1,304.7,426.14l3.676,2.687a16.307,16.307,0,0,1,9.294-9.556,14.641,14.641,0,0,1-1.929-12.708,14.252,14.252,0,0,1,5.681-7.7,14.663,14.663,0,0,1,20.365,20.416,16.32,16.32,0,0,1,9.254,9.556l3.686-2.7a10.862,10.862,0,0,1-.823-9,10.5,10.5,0,0,1,4.122-5.38,10.8,10.8,0,0,1,12.935.592,10.94,10.94,0,0,1,2.491,13.874c.157.1.312.218.479.312a11.718,11.718,0,0,1,6.11,8.49,1.47,1.47,0,0,0,.163.344Zm-61.163-32.965a10.67,10.67,0,1,0,10.744-10.645A10.653,10.653,0,0,0,319.036,410.881Zm-11.591,30.366c0-1.664.043-3.238-.01-4.809a7.584,7.584,0,0,0-5.027-6.787,1.686,1.686,0,0,0-1.242.138,10.858,10.858,0,0,1-11.678.007,1.758,1.758,0,0,0-1.334-.118,7.036,7.036,0,0,0-4.7,5.295,45.843,45.843,0,0,0-.394,6.274Zm68.793-.012c0-1.709.121-3.326-.025-4.919a7.467,7.467,0,0,0-5.042-6.667,1.631,1.631,0,0,0-1.24.142,10.859,10.859,0,0,1-11.664.014,1.75,1.75,0,0,0-1.329-.13,7,7,0,0,0-4.694,5.279,47.594,47.594,0,0,0-.395,6.281Zm-12.144-13.714a6.841,6.841,0,1,0-6.85-6.786A6.82,6.82,0,0,0,364.094,427.522Zm-68.8,0a6.841,6.841,0,1,0-6.823-6.911A6.8,6.8,0,0,0,295.3,427.522Z" transform="translate(0 -27.67)" fill="#fec844"/>
    <path id="Path_3315" data-name="Path 3315" d="M380.2,348.921a15.16,15.16,0,0,1-.68,1.611,5.356,5.356,0,0,1-4.581,2.963c-1.5.077-3.014.015-4.636.015-.027.446-.061.791-.065,1.136-.025,2.234-.061,4.468-.055,6.7a2.117,2.117,0,0,1-1.126,2.215,2.187,2.187,0,0,1-2.372-.43q-6.186-4.558-12.411-9.064a2.808,2.808,0,0,0-1.519-.5c-4.7-.038-9.4-.007-14.094-.039a1.516,1.516,0,0,0-1.43.781c-1.761,2.614-3.659,5.141-5.311,7.822-1.282,2.08-3.095,2.14-4.4.035-1.66-2.676-3.55-5.207-5.305-7.826a1.6,1.6,0,0,0-1.516-.812c-4.665.033-9.33,0-14,.041a2.98,2.98,0,0,0-1.6.541q-6,4.315-11.937,8.71c-.866.637-1.706,1.293-2.858.718-1.176-.588-1.069-1.685-1.067-2.741,0-2.36,0-4.72,0-7.252-1.376,0-2.615.085-3.836-.026a9.451,9.451,0,0,1-3.126-.673,5.035,5.035,0,0,1-3.026-4.722q-.081-13.058,0-26.118a5.334,5.334,0,0,1,3.624-5.049c.293-.124.585-.253.877-.379h91.909a6.4,6.4,0,0,1,4.536,4.733Zm-87.1,8.994c.48-.324.748-.494,1-.68,3.156-2.306,6.294-4.637,9.481-6.9a3.714,3.714,0,0,1,1.972-.7c5.585-.055,11.172-.025,16.758-.037a2.485,2.485,0,0,1,2.23,1.184c1.5,2.234,3.039,4.446,4.566,6.665.178.258.381.5.631.822,1.713-2.491,3.394-4.876,5-7.307a2.762,2.762,0,0,1,2.531-1.37c5.487.025,10.976-.014,16.463.042a3.891,3.891,0,0,1,2.074.688c3.192,2.254,6.328,4.589,9.484,6.893.271.2.55.385,1.03.718,0-2.17-.017-4.073.005-5.977.018-1.653.7-2.329,2.349-2.348,1.741-.02,3.483,0,5.225-.007,1.814-.007,2.351-.544,2.352-2.348q0-12.175,0-24.35c0-1.856-.533-2.378-2.42-2.379H340.023q-27.308,0-54.615,0c-1.635,0-2.241.58-2.241,2.16q-.006,12.422,0,24.843c0,1.425.61,2.049,2.03,2.068,1.709.023,3.417,0,5.126.007,2.176,0,2.758.569,2.773,2.726C293.11,354.118,293.1,355.91,293.1,357.915Z" transform="translate(-0.003)" fill="#fec844"/>
    <path id="Path_3316" data-name="Path 3316" d="M357.483,467.163a1.966,1.966,0,1,1-2.033-1.95A1.983,1.983,0,0,1,357.483,467.163Z" transform="translate(-25.809 -51.594)" fill="#fec844"/>
    <path id="Path_3317" data-name="Path 3317" d="M361.078,333.454H385.92c.328,0,.659-.011.985.016a1.94,1.94,0,0,1,.37,3.821,4.28,4.28,0,0,1-1.071.1q-25.089.007-50.178,0a4.258,4.258,0,0,1-1.259-.153,1.855,1.855,0,0,1-1.286-2.074,1.9,1.9,0,0,1,1.768-1.692c.359-.033.722-.019,1.084-.019Z" transform="translate(-18.836 -5.858)" fill="#fec844"/>
    <path id="Path_3318" data-name="Path 3318" d="M322.647,350.31q12.421,0,24.842,0,2.822,0,2.771,2.011c-.031,1.3-.936,1.933-2.766,1.933H297.515c-1.6-.012-2.538-.742-2.541-1.978s.917-1.963,2.536-1.964Q310.079,350.3,322.647,350.31Z" transform="translate(-5.476 -11.709)" fill="#fec844"/>
    <path id="Path_3319" data-name="Path 3319" d="M399.026,350.309c2.3,0,4.594-.011,6.89,0,1.452.009,2.343.767,2.349,1.948s-.906,1.982-2.328,1.986q-6.988.019-13.976,0c-1.44,0-2.3-.794-2.278-2.012.02-1.173.857-1.91,2.256-1.921C394.3,350.3,396.663,350.309,399.026,350.309Z" transform="translate(-38.35 -11.707)" fill="#fec844"/>
    <path id="Path_3320" data-name="Path 3320" d="M304.378,333.455c2.264,0,4.529-.005,6.794,0,1.53,0,2.4.737,2.385,1.986-.016,1.217-.874,1.951-2.338,1.953q-6.942.012-13.884,0c-1.419,0-2.343-.786-2.36-1.958s.89-1.974,2.312-1.98C299.651,333.447,302.015,333.455,304.378,333.455Z" transform="translate(-5.476 -5.858)" fill="#fec844"/>
  </g>
</svg>
