<svg xmlns="http://www.w3.org/2000/svg" width="119.115" height="119.125" viewBox="0 0 119.115 119.125">
  <g id="Icon-19_clr" data-name="Icon-19 clr" transform="translate(-499.804 -307.386)">
    <path id="Path_3321" data-name="Path 3321" d="M618.92,365.769a4.6,4.6,0,0,1-5.137,3.238c-.959-.066-1.925-.011-3.058-.011,0,1.227.005,2.373,0,3.519-.017,3.054-1.622,4.668-4.662,4.668q-50.824,0-101.647,0c-2.989,0-4.609-1.613-4.609-4.586q-.005-26.22,0-52.441c0-2.886,1.655-4.547,4.531-4.569,1.159-.009,2.318,0,3.662,0,0-1.06.056-2.053-.011-3.038a4.647,4.647,0,0,1,3.216-5.162H615.663a4.88,4.88,0,0,1,3.257,3.257ZM504,319.742v53.27H606.515v-53.27Zm8.2-4.157h93.455c3.571,0,5.074,1.509,5.074,5.1q0,21.336,0,42.673v1.434h4V311.577H512.2Z" fill="#fec844"/>
    <path id="Path_3322" data-name="Path 3322" d="M568.279,452.5c0-1.978,0-3.826,0-5.675.009-2.953,1.633-4.593,4.6-4.616q3.6-.029,7.2,0c3.016.023,4.625,1.666,4.644,4.709.011,1.743.015,3.485.029,5.228,0,.07.061.139.166.365.575,0,1.228-.044,1.873.009a1.992,1.992,0,0,1,1.626,3.189q-5.067,7.227-10.262,14.362a1.96,1.96,0,0,1-3.346-.012q-5.143-7.1-10.2-14.267a2.017,2.017,0,0,1,1.7-3.285C566.935,452.47,567.549,452.5,568.279,452.5Zm14.439,4.179c-1.673-.492-2.106-1.049-2.111-2.61-.007-2.545,0-5.09,0-7.684h-8.2c0,2.413-.039,4.767.013,7.118.036,1.558-.239,2.848-2.145,3.174l6.221,8.7Z" transform="translate(-21.243 -44.492)" fill="#fec844"/>
    <path id="Path_3323" data-name="Path 3323" d="M633.9,434.123c.6,0,1.178.008,1.751,0,.893-.016,1.75.289,1.952,1.141a3.176,3.176,0,0,1-.288,2.253c-1.8,2.709-3.734,5.323-5.624,7.97-1.395,1.954-2.781,3.914-4.193,5.855-1.207,1.66-2.662,1.68-3.849.031-3.278-4.557-6.528-9.135-9.8-13.7a2.232,2.232,0,0,1-.34-2.488,2.09,2.09,0,0,1,2.152-1.069c.5.015.993,0,1.667,0v-4c0-.659-.013-1.317,0-1.976a4.09,4.09,0,0,1,4.21-4.3q4.008-.083,8.019,0a4.086,4.086,0,0,1,4.225,4.4c.017,1.82.009,3.641.016,5.462A2.946,2.946,0,0,0,633.9,434.123Zm-12.441-6.141c0,2.562,0,5,0,7.436,0,1.8-.331,2.275-2.072,2.936l6.179,8.633,6.164-8.632c-1.75-.677-2.075-1.152-2.08-2.957,0-1.046,0-2.092,0-3.137v-4.279Z" transform="translate(-37.445 -38.423)" fill="#fec844"/>
    <path id="Path_3324" data-name="Path 3324" d="M519.252,434.13c0-2.11-.011-4.006,0-5.9a4.059,4.059,0,0,1,4.337-4.381q3.837-.05,7.675,0a4.059,4.059,0,0,1,4.375,4.347c.03,1.926.005,3.853.005,5.862.513.029.889.075,1.264.067,1.036-.023,2.041.005,2.607,1.093.59,1.136-.016,1.982-.646,2.858q-4.037,5.615-8.04,11.253c-.54.756-1.057,1.532-1.628,2.264a2.025,2.025,0,0,1-3.5,0q-5.105-7.065-10.128-14.187a2,2,0,0,1,1.7-3.272C517.882,434.106,518.494,434.13,519.252,434.13Zm4.08-6.134c0,2.5,0,4.936,0,7.368,0,1.915-.252,2.288-2.051,3L527.453,447l6.206-8.693c-1.7-.527-2.076-1.012-2.081-2.624-.009-2.544,0-5.088,0-7.685Z" transform="translate(-5.053 -38.428)" fill="#fec844"/>
    <path id="Path_3325" data-name="Path 3325" d="M578.623,417.746c1.278,0,2.557-.013,3.835,0a4.041,4.041,0,0,1,4.266,3.98,38.624,38.624,0,0,1,0,4.3,4.082,4.082,0,0,1-4.25,4.025q-3.95.053-7.9,0A4.119,4.119,0,0,1,570.3,425.7c-.013-1.278-.025-2.557,0-3.834a4.053,4.053,0,0,1,4.134-4.112C575.834,417.725,577.229,417.746,578.623,417.746Zm-4.145,8.111h8.063v-3.943h-8.063Z" transform="translate(-23.262 -36.42)" fill="#fec844"/>
    <path id="Path_3326" data-name="Path 3326" d="M559.454,331.92q19.942,0,39.885,0c2.377,0,2.612.193,3.145,2.46a1.986,1.986,0,0,0,1.764,1.6c1.824.308,2.258.837,2.259,2.728q.007,15.811,0,31.622c0,1.838-.412,2.311-2.2,2.644a2.092,2.092,0,0,0-1.871,1.913c-.245,1.646-.906,2.2-2.565,2.2q-40.582.006-81.164,0c-1.665,0-2.289-.545-2.551-2.2a2.142,2.142,0,0,0-2-1.933c-1.522-.236-2.118-.872-2.12-2.383q-.019-16.1,0-32.2c0-1.484.627-2.159,2.155-2.374a2.075,2.075,0,0,0,1.947-1.83c.34-1.84.808-2.245,2.725-2.247q8.546-.01,17.093,0Zm-.156,41.045q19.132,0,38.265.012a1.617,1.617,0,0,0,1.544-.839,12.1,12.1,0,0,1,2.6-2.558,1.388,1.388,0,0,0,.742-1.254q-.031-13.838,0-27.676c0-.64-.288-.885-.758-1.251a12.623,12.623,0,0,1-2.6-2.561,1.62,1.62,0,0,0-1.544-.86c-3.139.034-6.28.015-9.42.015q-33.5,0-66.993-.02a1.807,1.807,0,0,0-1.716.961,11.2,11.2,0,0,1-2.534,2.465,1.356,1.356,0,0,0-.736,1.245q.028,13.838,0,27.676a1.377,1.377,0,0,0,.728,1.264,10.9,10.9,0,0,1,2.534,2.461,1.79,1.79,0,0,0,1.733.937Q540.224,372.945,559.3,372.965Z" transform="translate(-4.036 -8.097)" fill="#fec844"/>
    <path id="Path_3327" data-name="Path 3327" d="M580.56,348.306c.78,0,1.43-.03,2.078.007a2.019,2.019,0,1,1-.007,4.037c-1.9.046-3.8.009-5.7.024-1.614.013-2.513.791-2.483,2.117.029,1.269.914,1.992,2.473,2.005,1.2.009,2.4-.012,3.605.009a6.145,6.145,0,0,1,1.065,12.207c-.3.06-.608.112-1.035.19,0,.606.017,1.216,0,1.826a2.038,2.038,0,1,1-4.07.04c-.036-.61-.006-1.223-.006-1.944-.71,0-1.284.018-1.857,0a2.071,2.071,0,1,1,.033-4.125c1.861-.032,3.722,0,5.582-.013,1.454-.011,2.351-.768,2.384-1.976.034-1.247-.877-2.064-2.392-2.1-1.239-.027-2.482.024-3.721-.019a6.178,6.178,0,0,1-6.19-5.742,6.112,6.112,0,0,1,5.372-6.483c.579-.094.815-.287.789-.873a8.355,8.355,0,0,1,.064-1.622,1.952,1.952,0,0,1,2.04-1.683,2.013,2.013,0,0,1,1.951,1.8,9.686,9.686,0,0,1,.025,1.045C580.563,347.381,580.56,347.728,580.56,348.306Z" transform="translate(-23.267 -12.145)" fill="#fec844"/>
    <path id="Path_3328" data-name="Path 3328" d="M537.816,362.563q5.52,0,11.039,0a1.95,1.95,0,0,1,2.082,1.5,1.84,1.84,0,0,1-.835,2.219,2.987,2.987,0,0,1-1.432.362q-10.981.033-21.961.007c-1.471,0-2.315-.789-2.327-2.026-.012-1.293.851-2.057,2.4-2.063C530.457,362.554,534.137,362.562,537.816,362.563Z" transform="translate(-8.111 -18.209)" fill="#fec844"/>
    <path id="Path_3329" data-name="Path 3329" d="M614.266,362.561c3.72,0,7.439-.009,11.159.008a2.064,2.064,0,0,1,2.195,1.674,1.983,1.983,0,0,1-1.258,2.237,5.021,5.021,0,0,1-1.489.175c-2.634.016-5.269.008-7.9.008h-12.9c-.349,0-.7.014-1.046-.016a2.086,2.086,0,0,1-2.063-2.087,2.051,2.051,0,0,1,2.149-1.986c2.208-.032,4.417-.012,6.626-.013Q612,362.559,614.266,362.561Z" transform="translate(-33.384 -18.208)" fill="#fec844"/>
  </g>
</svg>
