<svg id="Icon-20" xmlns="http://www.w3.org/2000/svg" width="100.792" height="106.617" viewBox="0 0 100.792 106.617">
  <path id="Path_3352" data-name="Path 3352" d="M50.468,95.835c8.139,0,16.277.037,24.415-.016a11.211,11.211,0,0,1,9.243,4.38c4.856,5.925,9.79,11.785,14.7,17.668,2.819,3.379,2.61,6.742-.624,9.706q-21.584,19.788-43.171,39.574c-2.967,2.719-6.291,2.718-9.273-.015q-21.687-19.87-43.366-39.75c-2.974-2.727-3.18-6.2-.58-9.323C6.827,112.042,11.858,106.037,16.85,100a10.94,10.94,0,0,1,8.944-4.176C34.018,95.859,42.244,95.835,50.468,95.835ZM36.764,125l13.487,37.086.3-.034L64.025,125Zm58.167-.068H93.475c-7.919,0-15.839.022-23.758-.026a1.528,1.528,0,0,0-1.711,1.258q-6,16.64-12.077,33.251c-.151.414-.263.843-.393,1.265l.246.14ZM45.009,160.8l.209-.179a3.121,3.121,0,0,0-.1-.489q-6.24-17.17-12.463-34.346c-.294-.815-.759-.873-1.455-.872q-12.007.021-24.014.009H5.867Zm-3.393-60.767c-1.72,6.881-3.433,13.736-5.159,20.647H64.335l-5.164-20.647Zm-4.276-.047c-3.94,0-7.657.059-11.371-.02a7.192,7.192,0,0,0-6.072,2.848c-4.694,5.713-9.453,11.372-14.182,17.057a8.848,8.848,0,0,0-.537.819H32.168C33.889,113.8,35.594,106.981,37.34,99.991ZM68.625,120.7H95.582a1.764,1.764,0,0,0-.165-.414q-7.6-9.119-15.216-18.222A5.862,5.862,0,0,0,75.612,100c-1.038-.016-2.076-.005-3.114-.005H63.449Z" transform="translate(0 -62.567)" fill="#fec844"/>
  <path id="Path_3353" data-name="Path 3353" d="M65.9,13.3l12-10.5c.586-.513,1.169-1.029,1.764-1.532a4.124,4.124,0,0,1,5.956,0c4.026,3.481,8.018,7,12.025,10.5.486.425.977.844,1.627,1.4,1.2-1.25,2.344-2.481,3.527-3.677,2.009-2.03,4.019-4.059,6.069-6.047a3.911,3.911,0,0,1,4.325-.88,3.714,3.714,0,0,1,2.652,3.513c.078,5.191.2,10.393-.046,15.574-.206,4.35-3.952,7.442-8.488,7.446q-24.665.019-49.331,0h-.26A8.294,8.294,0,0,1,49.4,20.756c-.036-4.673,0-9.347-.012-14.02A4.193,4.193,0,0,1,56.71,3.709c2.782,2.787,5.576,5.561,8.347,8.36A8.415,8.415,0,0,1,65.9,13.3ZM53.655,6.468c-.071.436-.1.521-.1.606,0,4.458-.015,8.916,0,13.373a4.164,4.164,0,0,0,4.547,4.5q24.54.009,49.079,0a4.167,4.167,0,0,0,4.551-4.5c.015-4.2.005-8.4,0-12.594,0-.366-.03-.733-.055-1.3-.46.43-.775.707-1.071,1q-4.731,4.725-9.46,9.453c-1.345,1.338-2.26,1.36-3.7.108Q94.217,14.308,91,11.479C88.239,9.064,85.475,6.652,82.667,4.2c-.4.336-.733.6-1.053.883q-6.89,6.025-13.781,12.049c-1.438,1.254-2.351,1.214-3.7-.128Q59.994,12.88,55.871,8.74C55.18,8.047,54.5,7.339,53.655,6.468Z" transform="translate(-32.249 0)" fill="#fec844"/>
</svg>
