<svg id="Group_348" data-name="Group 348" xmlns="http://www.w3.org/2000/svg" width="57.605" height="65.686" viewBox="0 0 57.605 65.686">
  <path id="Path_3421" data-name="Path 3421" d="M620.2,121.827a11.32,11.32,0,0,0-1-.73c-8.373-4.838-16.737-9.691-25.139-14.477a3.319,3.319,0,0,1-1.893-3.286q.088-14.456,0-28.913a3.23,3.23,0,0,1,1.846-3.18q12.657-7.217,25.241-14.559a3.013,3.013,0,0,1,3.435-.011q12.583,7.342,25.238,14.562a3.237,3.237,0,0,1,1.843,3.187q-.078,14.521,0,29.042A3.151,3.151,0,0,1,648,106.558q-12.594,7.2-25.132,14.49c-.392.227-.748.517-1.121.779Zm25.689-32.82c0-4.411-.018-8.822.017-13.233a1.773,1.773,0,0,0-1-1.827Q633.372,67.363,621.9,60.668a1.6,1.6,0,0,0-1.858.014q-11.482,6.677-23,13.285a1.681,1.681,0,0,0-1,1.691q.055,13.233,0,26.466a1.687,1.687,0,0,0,.954,1.722q11.584,6.628,23.119,13.344a1.512,1.512,0,0,0,1.745,0q11.541-6.7,23.118-13.345a1.594,1.594,0,0,0,.937-1.6C645.869,97.829,645.889,93.418,645.889,89.007Z" transform="translate(-592.168 -56.141)"/>
  <path id="Path_3422" data-name="Path 3422" d="M615.459,120.168c0,2.124.054,4.25-.032,6.371a2.888,2.888,0,0,1-.709,1.932,2.17,2.17,0,0,1-1.963.284,2.469,2.469,0,0,1-1.1-1.788c-.119-2.776-.055-5.56-.056-8.341,0-1.284-.006-2.568.008-3.851a1.86,1.86,0,0,1,1.773-1.987c2.7-.417,3.48.02,4.526,2.519a70.935,70.935,0,0,0,2.978,6.481q0-2.423,0-4.847c0-.728-.024-1.456.01-2.182a1.912,1.912,0,1,1,3.823-.1c.063.98.023,1.967.023,2.951,0,3,.011,5.991,0,8.985-.009,1.719-.692,2.386-2.42,2.436-2.67.078-2.894-.065-3.916-2.515q-1.33-3.189-2.653-6.381Z" transform="translate(-603.157 -88.12)"/>
  <path id="Path_3423" data-name="Path 3423" d="M653.533,116.726v3.406c1.271,0,2.5-.021,3.731.006,1.466.033,2.233.7,2.239,1.9s-.762,1.892-2.216,1.94c-1.194.04-2.391.008-3.8.008,0,.989.012,1.906,0,2.824-.025,1.5-.755,2.337-1.985,2.3-1.173-.035-1.858-.845-1.863-2.289q-.02-5.839,0-11.679a1.959,1.959,0,0,1,2.186-2.252q3.785-.063,7.572,0c1.414.022,2.21.8,2.181,1.98s-.815,1.836-2.284,1.854C657.419,116.743,655.543,116.726,653.533,116.726Z" transform="translate(-624.684 -88.236)"/>
  <path id="Path_3424" data-name="Path 3424" d="M684.473,116.751c-.914,0-1.636.045-2.351-.01a1.711,1.711,0,0,1-1.748-1.825,1.658,1.658,0,0,1,1.649-1.91q4.355-.119,8.715,0a1.684,1.684,0,0,1,1.667,1.912,1.74,1.74,0,0,1-1.769,1.826c-.714.045-1.433.008-2.306.008,0,1.56,0,2.957,0,4.355,0,1.967.029,3.934-.013,5.9-.03,1.388-.836,2.194-2.018,2.146-1.142-.046-1.807-.806-1.817-2.18-.021-2.865-.007-5.73-.008-8.6Z" transform="translate(-642.085 -88.288)"/>
</svg>
