<svg id="Group_347" data-name="Group 347" xmlns="http://www.w3.org/2000/svg" width="79.008" height="65.686" viewBox="0 0 79.008 65.686">
  <path id="Path_3415" data-name="Path 3415" d="M440.066,152.064l-4.573-14.931h-5.734c-4.909,0-9.818.041-14.726-.03-1.175-.017-1.754.273-2.1,1.456-1.288,4.459-2.68,8.888-4.088,13.5h16.973c.559,0,1.122-.035,1.677.02a2.105,2.105,0,0,1,2.157,2.307,2.051,2.051,0,0,1-2.148,2.121c-1.737.075-3.479.03-5.219.03-5.22,0-10.439.011-15.658,0-2.654-.008-3.493-1.125-2.725-3.65,1.806-5.935,3.681-11.849,5.436-17.8a3.011,3.011,0,0,1,3.365-2.46q11.743.09,23.487,0a3.007,3.007,0,0,1,3.369,2.451c1.754,5.95,3.631,11.864,5.437,17.8.771,2.531-.066,3.641-2.716,3.66-2.3.017-4.6-.009-6.9.007-1.5.01-2.574-.534-2.709-2.16-.118-1.413.936-2.286,2.726-2.316C436.884,152.044,438.366,152.064,440.066,152.064Z" transform="translate(-403.633 -90.869)"/>
  <path id="Path_3416" data-name="Path 3416" d="M518.14,152.077l-4.574-14.93h-2.017c-6.029,0-12.058.049-18.085-.035-1.462-.02-2.295.261-2.556,1.841a19.166,19.166,0,0,1-1.093,3.554,2.212,2.212,0,1,1-4.208-1.364,65.282,65.282,0,0,1,2.129-6.738,3.2,3.2,0,0,1,2.324-1.659q12.49-.181,24.982,0a3.1,3.1,0,0,1,2.3,1.691c2.08,6.3,4,12.661,5.91,19.02.546,1.819-.415,3.072-2.366,3.079q-15.009.05-30.018,0c-1.622,0-2.642-.993-2.5-2.348.168-1.621,1.252-2.124,2.748-2.122q12.4.02,24.8.006Z" transform="translate(-444.391 -90.882)"/>
  <path id="Path_3417" data-name="Path 3417" d="M474.865,98.557h-22.08c-1.042,3.352-2.071,6.662-3.1,9.973-.458,1.474-1.43,2.269-2.949,1.757a2.09,2.09,0,0,1-1.373-2.85q1.765-5.791,3.549-11.576A2.474,2.474,0,0,1,451.576,94q12.221.021,24.441,0a2.623,2.623,0,0,1,2.814,2.163c1.066,3.634,2.228,7.24,3.321,10.866.517,1.715,0,3.006-1.357,3.315-1.579.358-2.43-.474-2.872-1.933C476.933,105.144,475.9,101.893,474.865,98.557Z" transform="translate(-424.346 -71.629)"/>
  <path id="Path_3418" data-name="Path 3418" d="M477.822,55.309c0-1.239-.064-2.482.016-3.716a2.07,2.07,0,0,1,2.288-2.154,2.032,2.032,0,0,1,2.125,2.129c.071,2.538.077,5.081,0,7.618a2.206,2.206,0,0,1-4.411.024C477.763,57.914,477.822,56.61,477.822,55.309Z" transform="translate(-440.568 -49.438)"/>
  <path id="Path_3419" data-name="Path 3419" d="M441.2,65a10.181,10.181,0,0,1,1.9,1.1c1.664,1.572,3.263,3.213,4.881,4.833,1.067,1.069,1.385,2.273.233,3.417s-2.347.809-3.414-.261c-1.66-1.666-3.414-3.251-4.931-5.038a3.193,3.193,0,0,1-.419-2.522C439.6,65.936,440.533,65.546,441.2,65Z" transform="translate(-421.424 -57.19)"/>
  <path id="Path_3420" data-name="Path 3420" d="M514.259,65.177c.557.455,1.447.832,1.649,1.439a2.848,2.848,0,0,1-.3,2.376c-1.708,1.951-3.583,3.763-5.475,5.543a1.844,1.844,0,0,1-2.936-.126,3.045,3.045,0,0,1-.237-2.764,74.7,74.7,0,0,1,5.712-5.818A5.515,5.515,0,0,1,514.259,65.177Z" transform="translate(-454.972 -57.277)"/>
</svg>
