<svg xmlns="http://www.w3.org/2000/svg" width="65.684" height="65.687" viewBox="0 0 65.684 65.687">
  <path id="Path_3407" data-name="Path 3407" d="M275.231,71.975c-1.32-.84-2.678-1.625-3.95-2.531a8.049,8.049,0,0,1-3.515-8.669,8.29,8.29,0,0,1,14.851-3.1,82.252,82.252,0,0,1,4.3,7.508c.427.773.743,1.609,1.251,2.725.382-.768.628-1.307.912-1.825,1.537-2.806,2.9-5.731,4.676-8.376a7.692,7.692,0,0,1,8.262-3.378,7.943,7.943,0,0,1,6.5,5.947,8.172,8.172,0,0,1-3.115,8.955c-1.335,1-2.793,1.84-4.422,2.9.611.058,1.034.131,1.457.132,3.473.01,6.945-.01,10.417.009,5.05.028,8.178,3.151,8.183,8.178q.014,15.626,0,31.251c-.006,5.016-3.156,8.135-8.213,8.137q-24.622.009-49.245,0c-5.053,0-8.206-3.127-8.211-8.139q-.014-15.626,0-31.251c0-5.026,3.132-8.15,8.183-8.176,3.884-.02,7.769,0,11.654,0Zm19.183,5.346c.46.534.648.781.864,1,1.705,1.717,3.455,3.393,5.111,5.157a2.407,2.407,0,0,1-.016,3.531,2.529,2.529,0,0,1-3.551-.037c-.666-.595-1.279-1.251-1.909-1.884-2.214-2.224-4.426-4.451-6.658-6.7-.353.319-.553.485-.736.668-2.607,2.6-5.193,5.225-7.824,7.8a2.523,2.523,0,0,1-3.666.153,2.472,2.472,0,0,1,.073-3.653c.743-.816,1.552-1.573,2.333-2.355,1.118-1.12,2.239-2.238,3.658-3.657-6.756,0-13-.042-19.251.029-1.617.018-2.418,1.11-2.422,2.9q-.023,9.234,0,18.469a4.823,4.823,0,0,0,.146.85h55.4c0-6.707.04-13.324-.032-19.94a2.339,2.339,0,0,0-2.529-2.312c-1.417-.069-2.841-.026-4.261-.026C304.366,77.319,299.59,77.321,294.413,77.321Zm-34,27.51c0,2.183,0,4.272,0,6.362,0,2.871.74,3.6,3.66,3.6q24.129,0,48.258,0a8.892,8.892,0,0,0,1.416-.036,2.3,2.3,0,0,0,2.17-2.154c.111-2.557.034-5.121.034-7.768Zm32.067-35.009.652.683c3.026-1.717,6.088-3.375,9.05-5.2a3.982,3.982,0,0,0,1.453-2.128,3.061,3.061,0,0,0-1.613-3.577,3.005,3.005,0,0,0-4.067.924C296,63.54,294.29,66.714,292.479,69.821Zm-9.188.551.374-.371c-.764-1.646-1.435-3.345-2.318-4.925a31.134,31.134,0,0,0-3.175-4.838,3.087,3.087,0,0,0-4.62-.028,3.273,3.273,0,0,0,.116,4.653,8.691,8.691,0,0,0,1.857,1.442C278.093,67.7,280.7,69.023,283.29,70.373Z" transform="translate(-255.355 -54.157)"/>
</svg>
