<svg id="Group_346" data-name="Group 346" xmlns="http://www.w3.org/2000/svg" width="86.556" height="65.687" viewBox="0 0 86.556 65.687">
  <path id="Path_3407" data-name="Path 3407" d="M56,128.143c1.418-1.412,2.814-2.846,4.256-4.233a69.435,69.435,0,0,1,22.633-14.962c12.563-4.964,24.841-4.059,36.856,1.872a71.971,71.971,0,0,1,21.487,16.322c.3.332.59.678.872,1.027a4.641,4.641,0,0,0,.452.673c-3.525,3.189-6.911,6.549-10.6,9.531a57.26,57.26,0,0,1-24.419,12c-10.351,2.157-20.1.165-29.406-4.5a71.806,71.806,0,0,1-20.912-15.986A14.714,14.714,0,0,0,56,128.818ZM99.442,110.8a17.683,17.683,0,1,0,17.434,17.929A17.66,17.66,0,0,0,99.442,110.8Zm18.925,5.259c4.8,8.3,4.791,16.54-.193,25.179a67.112,67.112,0,0,0,17.285-12.664C131.98,124.382,122.167,117.189,118.367,116.056Zm-38.128,25.2c-5.03-8.657-5.009-16.9-.376-25.219a64.432,64.432,0,0,0-17.014,12.439A67.984,67.984,0,0,0,80.239,141.258Z" transform="translate(-56 -85.559)"/>
  <path id="Path_3408" data-name="Path 3408" d="M129.533,69.33h4.886V81.765h-4.886Z" transform="translate(-88.783 -69.33)"/>
  <path id="Path_3409" data-name="Path 3409" d="M189.154,106.964l-4.042-3.037,7.575-10.11,4.051,3.023Z" transform="translate(-113.561 -80.247)"/>
  <path id="Path_3410" data-name="Path 3410" d="M61.83,96.868l4.033-3.044,7.577,10.1-4.029,3.052Z" transform="translate(-58.599 -80.25)"/>
  <path id="Path_3411" data-name="Path 3411" d="M98.385,88.621,93.342,78.543l4.5-2.293,5.056,10.1Z" transform="translate(-72.648 -72.415)"/>
  <path id="Path_3412" data-name="Path 3412" d="M157.249,86.391l5.051-10.11,4.508,2.268L161.767,88.64Z" transform="translate(-101.139 -72.429)"/>
  <path id="Path_3413" data-name="Path 3413" d="M127.809,148.258a7.563,7.563,0,1,1,7.61-7.562A7.541,7.541,0,0,1,127.809,148.258Zm.017-5.083a2.481,2.481,0,1,0-2.457-2.591A2.429,2.429,0,0,0,127.826,143.174Z" transform="translate(-84.66 -97.774)"/>
</svg>
