<svg xmlns="http://www.w3.org/2000/svg" width="22.405" height="21.387" viewBox="0 0 22.405 21.387">
  <g id="money-bag" transform="translate(0 -11.636)">
    <path id="Path_3493" data-name="Path 3493" d="M11.711,455.855H.509A.481.481,0,0,1,0,455.346v-1.018a.481.481,0,0,1,.509-.509h11.2a.481.481,0,0,1,.509.509v1.018A.481.481,0,0,1,11.711,455.855Z" transform="translate(0 -422.833)" fill="#f6b545"/>
    <path id="Path_3494" data-name="Path 3494" d="M9.675,454.328H0a.481.481,0,0,1,.509-.509H9.675Z" transform="translate(0 -422.834)" fill="#ffcb5b"/>
    <g id="Group_400" data-name="Group 400" transform="translate(0 31.495)">
      <path id="Path_3495" data-name="Path 3495" d="M9.675,465.454v.509a.481.481,0,0,1-.509.509H0a.481.481,0,0,0,.509.509h11.2a.481.481,0,0,0,.509-.509v-1.018H9.675Z" transform="translate(0 -465.454)" fill="#f19920"/>
      <path id="Path_3496" data-name="Path 3496" d="M23.782,466.472v-.764a.255.255,0,1,0-.509,0v.764" transform="translate(-22.255 -465.454)" fill="#f19920"/>
      <path id="Path_3497" data-name="Path 3497" d="M58.691,466.472v-.764a.255.255,0,1,0-.509,0v.764" transform="translate(-55.636 -465.454)" fill="#f19920"/>
      <path id="Path_3498" data-name="Path 3498" d="M93.6,466.472v-.764a.255.255,0,1,0-.509,0v.764" transform="translate(-89.017 -465.454)" fill="#f19920"/>
      <path id="Path_3499" data-name="Path 3499" d="M128.509,466.472v-.764a.255.255,0,1,0-.509,0v.764" transform="translate(-122.399 -465.454)" fill="#f19920"/>
      <path id="Path_3500" data-name="Path 3500" d="M163.418,466.472v-.764a.255.255,0,1,0-.509,0v.764" transform="translate(-155.78 -465.454)" fill="#f19920"/>
      <path id="Path_3501" data-name="Path 3501" d="M198.328,466.472v-.764a.255.255,0,1,0-.509,0v.764" transform="translate(-189.163 -465.454)" fill="#f19920"/>
    </g>
    <path id="Path_3502" data-name="Path 3502" d="M34.984,409.31h-11.2a.481.481,0,0,1-.509-.509v-1.018a.481.481,0,0,1,.509-.509h11.2a.481.481,0,0,1,.509.509V408.8A.481.481,0,0,1,34.984,409.31Z" transform="translate(-22.255 -378.324)" fill="#f6b545"/>
    <path id="Path_3503" data-name="Path 3503" d="M32.948,407.782H23.273a.481.481,0,0,1,.509-.509h9.166Z" transform="translate(-22.255 -378.324)" fill="#ffcb5b"/>
    <g id="Group_401" data-name="Group 401" transform="translate(1.018 29.458)">
      <path id="Path_3504" data-name="Path 3504" d="M32.948,418.908v.509a.481.481,0,0,1-.509.509H23.273a.481.481,0,0,0,.509.509h11.2a.481.481,0,0,0,.509-.509v-1.018H32.948Z" transform="translate(-23.273 -418.908)" fill="#f19920"/>
      <path id="Path_3505" data-name="Path 3505" d="M47.055,419.927v-.764a.255.255,0,0,0-.509,0v.764" transform="translate(-45.528 -418.909)" fill="#f19920"/>
      <path id="Path_3506" data-name="Path 3506" d="M81.964,419.927v-.764a.255.255,0,0,0-.509,0v.764" transform="translate(-78.909 -418.909)" fill="#f19920"/>
      <path id="Path_3507" data-name="Path 3507" d="M116.873,419.927v-.764a.255.255,0,0,0-.509,0v.764" transform="translate(-112.29 -418.909)" fill="#f19920"/>
      <path id="Path_3508" data-name="Path 3508" d="M151.782,419.927v-.764a.255.255,0,0,0-.509,0v.764" transform="translate(-145.672 -418.909)" fill="#f19920"/>
      <path id="Path_3509" data-name="Path 3509" d="M186.691,419.927v-.764a.255.255,0,0,0-.509,0v.764" transform="translate(-179.053 -418.909)" fill="#f19920"/>
      <path id="Path_3510" data-name="Path 3510" d="M221.6,419.927v-.764a.255.255,0,0,0-.509,0v.764" transform="translate(-212.435 -418.909)" fill="#f19920"/>
    </g>
    <path id="Path_3511" data-name="Path 3511" d="M58.257,316.219h-11.2a.481.481,0,0,1-.509-.509v-1.018a.481.481,0,0,1,.509-.509h11.2a.481.481,0,0,1,.509.509v1.018A.481.481,0,0,1,58.257,316.219Z" transform="translate(-44.509 -289.307)" fill="#f6b545"/>
    <path id="Path_3512" data-name="Path 3512" d="M56.22,314.691H46.545a.481.481,0,0,1,.509-.509H56.22Z" transform="translate(-44.508 -289.307)" fill="#ffcb5b"/>
    <g id="Group_402" data-name="Group 402" transform="translate(2.037 25.384)">
      <path id="Path_3513" data-name="Path 3513" d="M56.22,325.817v.509a.481.481,0,0,1-.509.509H46.545a.481.481,0,0,0,.509.509h11.2a.481.481,0,0,0,.509-.509v-1.018H56.22Z" transform="translate(-46.545 -325.817)" fill="#f19920"/>
      <path id="Path_3514" data-name="Path 3514" d="M70.328,326.836v-.764a.255.255,0,1,0-.509,0v.764" transform="translate(-68.801 -325.818)" fill="#f19920"/>
      <path id="Path_3515" data-name="Path 3515" d="M105.237,326.836v-.764a.255.255,0,1,0-.509,0v.764" transform="translate(-102.182 -325.818)" fill="#f19920"/>
      <path id="Path_3516" data-name="Path 3516" d="M140.146,326.836v-.764a.255.255,0,1,0-.509,0v.764" transform="translate(-135.563 -325.818)" fill="#f19920"/>
      <path id="Path_3517" data-name="Path 3517" d="M175.055,326.836v-.764a.255.255,0,1,0-.509,0v.764" transform="translate(-168.945 -325.818)" fill="#f19920"/>
      <path id="Path_3518" data-name="Path 3518" d="M209.964,326.836v-.764a.255.255,0,1,0-.509,0v.764" transform="translate(-202.326 -325.818)" fill="#f19920"/>
      <path id="Path_3519" data-name="Path 3519" d="M244.873,326.836v-.764a.255.255,0,1,0-.509,0v.764" transform="translate(-235.708 -325.818)" fill="#f19920"/>
    </g>
    <path id="Path_3520" data-name="Path 3520" d="M34.984,269.674h-11.2a.481.481,0,0,1-.509-.509v-1.018a.481.481,0,0,1,.509-.509h11.2a.481.481,0,0,1,.509.509v1.018A.481.481,0,0,1,34.984,269.674Z" transform="translate(-22.255 -244.799)" fill="#f6b545"/>
    <path id="Path_3521" data-name="Path 3521" d="M32.948,268.146H23.273a.481.481,0,0,1,.509-.509h9.166Z" transform="translate(-22.255 -244.799)" fill="#ffcb5b"/>
    <g id="Group_403" data-name="Group 403" transform="translate(1.018 23.347)">
      <path id="Path_3522" data-name="Path 3522" d="M32.948,279.272v.509a.481.481,0,0,1-.509.509H23.273a.481.481,0,0,0,.509.509h11.2a.481.481,0,0,0,.509-.509v-1.018H32.948Z" transform="translate(-23.273 -279.272)" fill="#f19920"/>
      <path id="Path_3523" data-name="Path 3523" d="M47.055,280.29v-.764a.255.255,0,0,0-.509,0v.764" transform="translate(-45.528 -279.272)" fill="#f19920"/>
      <path id="Path_3524" data-name="Path 3524" d="M81.964,280.29v-.764a.255.255,0,0,0-.509,0v.764" transform="translate(-78.909 -279.272)" fill="#f19920"/>
      <path id="Path_3525" data-name="Path 3525" d="M116.873,280.29v-.764a.255.255,0,0,0-.509,0v.764" transform="translate(-112.29 -279.272)" fill="#f19920"/>
      <path id="Path_3526" data-name="Path 3526" d="M151.782,280.29v-.764a.255.255,0,0,0-.509,0v.764" transform="translate(-145.672 -279.272)" fill="#f19920"/>
      <path id="Path_3527" data-name="Path 3527" d="M186.691,280.29v-.764a.255.255,0,0,0-.509,0v.764" transform="translate(-179.053 -279.272)" fill="#f19920"/>
      <path id="Path_3528" data-name="Path 3528" d="M221.6,280.29v-.764a.255.255,0,0,0-.509,0v.764" transform="translate(-212.435 -279.272)" fill="#f19920"/>
    </g>
    <path id="Path_3529" data-name="Path 3529" d="M11.711,362.764H.509A.481.481,0,0,1,0,362.255v-1.018a.481.481,0,0,1,.509-.509h11.2a.481.481,0,0,1,.509.509v1.018A.481.481,0,0,1,11.711,362.764Z" transform="translate(0 -333.815)" fill="#f6b545"/>
    <path id="Path_3530" data-name="Path 3530" d="M9.675,361.237H0a.481.481,0,0,1,.509-.509H9.675Z" transform="translate(0 -333.816)" fill="#ffcb5b"/>
    <g id="Group_404" data-name="Group 404" transform="translate(0 27.421)">
      <path id="Path_3531" data-name="Path 3531" d="M9.675,372.363v.509a.481.481,0,0,1-.509.509H0a.481.481,0,0,0,.509.509h11.2a.481.481,0,0,0,.509-.509v-1.018H9.675Z" transform="translate(0 -372.363)" fill="#f19920"/>
      <path id="Path_3532" data-name="Path 3532" d="M23.782,373.381v-.764a.255.255,0,0,0-.509,0v.764" transform="translate(-22.255 -372.363)" fill="#f19920"/>
      <path id="Path_3533" data-name="Path 3533" d="M58.691,373.381v-.764a.255.255,0,0,0-.509,0v.764" transform="translate(-55.636 -372.363)" fill="#f19920"/>
      <path id="Path_3534" data-name="Path 3534" d="M93.6,373.381v-.764a.255.255,0,0,0-.509,0v.764" transform="translate(-89.017 -372.363)" fill="#f19920"/>
      <path id="Path_3535" data-name="Path 3535" d="M128.509,373.381v-.764a.255.255,0,0,0-.509,0v.764" transform="translate(-122.399 -372.363)" fill="#f19920"/>
      <path id="Path_3536" data-name="Path 3536" d="M163.418,373.381v-.764a.255.255,0,0,0-.509,0v.764" transform="translate(-155.78 -372.363)" fill="#f19920"/>
      <path id="Path_3537" data-name="Path 3537" d="M198.328,373.381v-.764a.255.255,0,0,0-.509,0v.764" transform="translate(-189.163 -372.363)" fill="#f19920"/>
    </g>
    <path id="Path_3538" data-name="Path 3538" d="M88.148,29.712a2.441,2.441,0,0,1-1.018-2.037,11.635,11.635,0,0,0-3.412-8.249l-2.19-2.19V15.71l1.782-2.24a1.216,1.216,0,0,0,.255-.713,1.13,1.13,0,0,0-1.12-1.12H80.51L80,12.654l-1.018-1.018H76.538a1.13,1.13,0,0,0-1.12,1.12,1.217,1.217,0,0,0,.255.713l1.782,2.24v1.528l-2.19,2.19a11.635,11.635,0,0,0-3.412,8.249h0a2.441,2.441,0,0,1-1.018,2.037,2.441,2.441,0,0,0-1.018,2.037h0a1.261,1.261,0,0,0,1.273,1.273h16.8a1.261,1.261,0,0,0,1.273-1.273h0A2.441,2.441,0,0,0,88.148,29.712Z" transform="translate(-66.762)" fill="#c97629"/>
    <path id="Path_3539" data-name="Path 3539" d="M89.262,29.712a2.6,2.6,0,0,1-1.018-2.088,12.049,12.049,0,0,0-3.666-8.5l-1.935-1.884V15.71l1.782-2.24a1.143,1.143,0,0,0,.1-1.324,1.131,1.131,0,0,0-1.018-.509.538.538,0,0,0-.458.713.959.959,0,0,1,.1.407,1.217,1.217,0,0,1-.255.713l-1.782,2.24v1.528H78.569l-.509.509h3.564l1.884,1.884a9.883,9.883,0,0,1,2.7,7.842,2.548,2.548,0,0,0,.967,2.19c.051.051.1.1.153.1a1.337,1.337,0,0,1-1.069,2.19H70.982A1.257,1.257,0,0,0,72.2,32.971h16.8A1.261,1.261,0,0,0,90.28,31.7v-.1A2.367,2.367,0,0,0,89.262,29.712Z" transform="translate(-67.876 0)" fill="#b06328"/>
    <path id="Path_3540" data-name="Path 3540" d="M226.437,106.254h-4.583a.783.783,0,0,1-.764-.764h0a.783.783,0,0,1,.764-.764h4.583a.783.783,0,0,1,.764.764h0A.783.783,0,0,1,226.437,106.254Z" transform="translate(-211.415 -89.016)" fill="#ffcb5b"/>
    <path id="Path_3541" data-name="Path 3541" d="M232.982,104.727h2.546a.241.241,0,0,1,.255.255h0a.241.241,0,0,1-.255.255h-2.546a.241.241,0,0,1-.255-.255h0A.241.241,0,0,1,232.982,104.727Z" transform="translate(-222.543 -89.017)" fill="#ffe278"/>
    <path id="Path_3542" data-name="Path 3542" d="M227.551,104.727H227.3v.509a.481.481,0,0,1-.509.509h-4.532a.766.766,0,0,0,.713.509h4.583a.764.764,0,1,0,0-1.528Z" transform="translate(-212.529 -89.017)" fill="#f6b545"/>
    <path id="Path_3543" data-name="Path 3543" d="M302.8,128h1.528a.241.241,0,0,1,.255.255h0a.241.241,0,0,1-.255.255H302.8a.241.241,0,0,1-.255-.255h0A.24.24,0,0,1,302.8,128Z" transform="translate(-289.307 -111.272)" fill="#f19920"/>
    <rect id="Rectangle_94" data-name="Rectangle 94" width="1.018" height="4.074" transform="translate(12.221 17.237)" fill="#f6b545"/>
    <path id="Path_3544" data-name="Path 3544" d="M279.273,139.636v.509h.509v3.564h.509v-4.074Z" transform="translate(-267.052 -122.399)" fill="#f19920"/>
    <circle id="Ellipse_49" data-name="Ellipse 49" cx="4.074" cy="4.074" r="4.074" transform="translate(8.656 20.802)" fill="#f6b545"/>
    <path id="Path_3545" data-name="Path 3545" d="M237.267,254.836a3.9,3.9,0,0,1,.967,2.6,4.086,4.086,0,0,1-4.074,4.074,3.9,3.9,0,0,1-2.6-.967,4.04,4.04,0,0,0,3.106,1.477,4.086,4.086,0,0,0,4.074-4.074A3.889,3.889,0,0,0,237.267,254.836Z" transform="translate(-221.431 -232.558)" fill="#b06328"/>
    <circle id="Ellipse_50" data-name="Ellipse 50" cx="3.564" cy="3.564" r="3.564" transform="translate(9.165 21.311)" fill="#ffcb5b"/>
    <path id="Path_3546" data-name="Path 3546" d="M294.473,314.182a3.542,3.542,0,0,1-3.564,3.564v.509a4.086,4.086,0,0,0,4.074-4.074Z" transform="translate(-278.179 -289.307)" fill="#f19920"/>
    <path id="Path_3547" data-name="Path 3547" d="M201.892,221.6v-.509a4.086,4.086,0,0,0-4.074,4.074h.509A3.542,3.542,0,0,1,201.892,221.6Z" transform="translate(-189.162 -200.289)" fill="#ffe27a"/>
    <path id="Path_3548" data-name="Path 3548" d="M246.91,246.911h-1.018a.509.509,0,0,1,0-1.018h1.528a.509.509,0,1,0,0-1.018h-.509a.509.509,0,0,0-1.018,0h0a1.528,1.528,0,0,0,0,3.055h1.018a.509.509,0,0,1,0,1.018h-1.528a.509.509,0,1,0,0,1.018h.509a.509.509,0,0,0,1.018,0h0a1.528,1.528,0,0,0,0-3.055Z" transform="translate(-233.671 -222.545)" fill="#e78825"/>
  </g>
</svg>
