<svg xmlns="http://www.w3.org/2000/svg" width="106.196" height="120.888" viewBox="0 0 106.196 120.888">
  <g id="RD-MP_BG_POINt-ICON" data-name="RD-MP BG POINt-ICON" transform="translate(7154.001)" fill="none">
    <path d="M-7125.757,106.2V82.475l24.854,14.687,53.1-29.375V91.512l-53.1,29.375Zm-27.114-15.411V62.5l.075.041,52.214-29.514,17.753,10.35-50.625,29.79-.018,26.35Zm32.762-13.516,52.365-29.442V19.81l17.654,10.375V58.05l.025.015L-7100.7,87.859ZM-7154,29.374-7100.9,0V.008l23.921,14.679V38.413L-7100.9,23.726-7154,53.1Z" stroke="none"/>
    <path d="M -7100.8212890625 115.1278076171875 L -7052.8046875 88.56387329101562 L -7052.8046875 76.26649475097656 L -7100.9853515625 102.921028137207 L -7120.7568359375 91.23720550537109 L -7120.7568359375 103.3458404541016 L -7100.8212890625 115.1278076171875 M -7138.46630859375 91.78692626953125 L -7138.45166015625 70.30731201171875 L -7092.72119140625 43.39797973632812 L -7100.61962890625 38.79306411743164 L -7147.87060546875 65.50150299072266 L -7147.87060546875 87.55465698242188 L -7138.46630859375 91.78692626953125 M -7100.79345703125 82.11296844482422 L -7055.08984375 55.22050857543945 L -7055.08984375 33.04636764526367 L -7062.74365234375 28.54811859130859 L -7062.74365234375 50.75399017333984 L -7109.7890625 77.20525360107422 L -7100.79345703125 82.11296844482422 M -7149.0009765625 44.61930084228516 L -7100.77197265625 17.93912887573242 L -7081.982421875 29.47547149658203 L -7081.982421875 17.48495483398438 L -7101.04052734375 5.789955615997314 L -7149.0009765625 32.32177734375 L -7149.0009765625 44.61930084228516 M -7100.9033203125 120.8873062133789 L -7125.7568359375 106.1987686157227 L -7125.7568359375 82.47474670410156 L -7100.9033203125 97.16160583496094 L -7047.8046875 67.78623199462891 L -7047.8046875 91.51190948486328 L -7100.9033203125 120.8873062133789 Z M -7133.4716796875 99.51774597167969 L -7152.87060546875 90.78746795654297 L -7152.87060546875 62.50043106079102 L -7152.79541015625 62.541748046875 L -7100.5810546875 33.02780914306641 L -7082.828125 43.37802886962891 L -7133.45361328125 73.16770935058594 L -7133.4716796875 99.51774597167969 Z M -7100.7001953125 87.85948944091797 L -7120.1083984375 77.27114868164062 L -7067.74365234375 47.82910919189453 L -7067.74365234375 19.80996894836426 L -7050.08984375 30.18534851074219 L -7050.08984375 58.05028915405273 L -7050.064453125 58.06486892700195 L -7100.7001953125 87.85948944091797 Z M -7154.0009765625 53.09938812255859 L -7154.0009765625 29.37368965148926 L -7100.9033203125 9.291991773352493e-06 L -7100.9033203125 0.007729291915893555 L -7076.982421875 14.68684959411621 L -7076.982421875 38.41252899169922 L -7100.9033203125 23.72579002380371 L -7154.0009765625 53.09938812255859 Z" stroke="none" fill="#171e2b"/>
  </g>
</svg>
