<svg xmlns="http://www.w3.org/2000/svg" xmlns:xlink="http://www.w3.org/1999/xlink" width="143" height="53" viewBox="0 0 143 53">
  <defs>
    <linearGradient id="linear-gradient" x1="0.159" y1="-0.113" x2="0.978" y2="1" gradientUnits="objectBoundingBox">
      <stop offset="0" stop-color="#fec844"/>
      <stop offset="0.431" stop-color="#fec844"/>
      <stop offset="0.695" stop-color="#ffda7e"/>
      <stop offset="1" stop-color="#a8660e"/>
    </linearGradient>
  </defs>
  <g id="Signup_Button" data-name="Signup Button" transform="translate(-1704 -144)">
    <path id="Path_1450" data-name="Path 1450" d="M4,0H139a4,4,0,0,1,4,4V49a4,4,0,0,1-4,4H4a4,4,0,0,1-4-4V4A4,4,0,0,1,4,0Z" transform="translate(1704 144)" fill="url(#linear-gradient)"/>
    <g id="Group_84" data-name="Group 84" transform="translate(211.75 63)">
      <text id="Sign_UP" data-name="Sign UP" transform="translate(1512.25 115)" font-size="20" font-family="NHaasGroteskTXPro-65Md, Neue Haas Grotesk Text Pro" font-weight="500"><tspan x="0" y="0">SIGN UP</tspan></text>
      <path id="Union_4" data-name="Union 4" d="M9.643,8.5,0,0,9.643,8.5,10,8.185,9.643,8.5,10,8.815,9.643,8.5,0,17Z" transform="translate(1604.75 99)" fill="none" stroke="#000" stroke-width="4"/>
    </g>
  </g>
</svg>
