<svg xmlns="http://www.w3.org/2000/svg" width="143" height="53" viewBox="0 0 143 53">
  <g id="Signup_Button2" data-name="Signup Button2" transform="translate(-1577 -78)">
    <g id="Path_1449" data-name="Path 1449" transform="translate(1577 78)" fill="none">
      <path d="M4,0H139a4,4,0,0,1,4,4V49a4,4,0,0,1-4,4H4a4,4,0,0,1-4-4V4A4,4,0,0,1,4,0Z" stroke="none"/>
      <path d="M 4 2 C 2.897201538085938 2 2 2.897201538085938 2 4 L 2 49 C 2 50.10279846191406 2.897201538085938 51 4 51 L 139 51 C 140.1027984619141 51 141 50.10279846191406 141 49 L 141 4 C 141 2.897201538085938 140.1027984619141 2 139 2 L 4 2 M 4 0 L 139 0 C 141.2091369628906 0 143 1.790859222412109 143 4 L 143 49 C 143 51.20914077758789 141.2091369628906 53 139 53 L 4 53 C 1.790863037109375 53 0 51.20914077758789 0 49 L 0 4 C 0 1.790859222412109 1.790863037109375 0 4 0 Z" stroke="none" fill="#373b43"/>
    </g>
    <g id="Group_83" data-name="Group 83" transform="translate(84.75 -3)">
      <text id="Sign_UP" data-name="Sign UP" transform="translate(1512.25 115)" fill="#fff" font-size="20" font-family="NHaasGroteskTXPro-65Md, Neue Haas Grotesk Text Pro" font-weight="500"><tspan x="0" y="0">SIGN UP</tspan></text>
      <path id="Union_4" data-name="Union 4" d="M9.643,8.5,0,0,9.643,8.5,10,8.185,9.643,8.5,10,8.815,9.643,8.5,0,17Z" transform="translate(1604.75 99)" fill="none" stroke="#fff" stroke-width="4"/>
    </g>
  </g>
</svg>
