<svg xmlns="http://www.w3.org/2000/svg" xmlns:xlink="http://www.w3.org/1999/xlink" width="506.575" height="1063.02" viewBox="0 0 506.575 1063.02">
  <defs>
    <linearGradient id="linear-gradient" x1="0.022" y1="0.985" x2="0.986" y2="0.012" gradientUnits="objectBoundingBox">
      <stop offset="0" stop-color="#fec844"/>
      <stop offset="0.397" stop-color="#fec844"/>
      <stop offset="1" stop-color="#fec844" stop-opacity="0"/>
    </linearGradient>
    <filter id="Colored_POINT" x="195.898" y="277.696" width="106" height="106" filterUnits="userSpaceOnUse">
      <feOffset input="SourceAlpha"/>
      <feGaussianBlur stdDeviation="10" result="blur"/>
      <feFlood flood-color="#fec844"/>
      <feComposite operator="in" in2="blur"/>
      <feComposite in="SourceGraphic"/>
    </filter>
  </defs>
  <g id="Single-Vector" transform="translate(-755.102 -12373.304)">
    <g id="Union_16" data-name="Union 16" transform="translate(8182.271 13084.334)" fill="none">
      <path d="M-7125.757,106.2V82.475l24.854,14.687,53.1-29.375V91.512l-53.1,29.375Zm-27.114-15.411V62.5l.075.041,52.214-29.514,17.753,10.35-50.625,29.79-.018,26.35Zm32.762-13.516,52.365-29.442V19.81l17.654,10.375V58.05l.025.015L-7100.7,87.859ZM-7154,29.374-7100.9,0V.008l23.921,14.679V38.413L-7100.9,23.726-7154,53.1Z" stroke="none"/>
      <path d="M -7100.8212890625 115.1278076171875 L -7052.8046875 88.56387329101562 L -7052.8046875 76.26649475097656 L -7100.9853515625 102.921028137207 L -7120.7568359375 91.23720550537109 L -7120.7568359375 103.3458404541016 L -7100.8212890625 115.1278076171875 M -7138.46630859375 91.78692626953125 L -7138.45166015625 70.30731201171875 L -7092.72119140625 43.39797973632812 L -7100.61962890625 38.79306411743164 L -7147.87060546875 65.50150299072266 L -7147.87060546875 87.55465698242188 L -7138.46630859375 91.78692626953125 M -7100.79345703125 82.11296844482422 L -7055.08984375 55.22050857543945 L -7055.08984375 33.04636764526367 L -7062.74365234375 28.54811859130859 L -7062.74365234375 50.75399017333984 L -7109.7890625 77.20525360107422 L -7100.79345703125 82.11296844482422 M -7149.0009765625 44.61930084228516 L -7100.77197265625 17.93912887573242 L -7081.982421875 29.47547149658203 L -7081.982421875 17.48495483398438 L -7101.04052734375 5.789955615997314 L -7149.0009765625 32.32177734375 L -7149.0009765625 44.61930084228516 M -7100.9033203125 120.8873062133789 L -7125.7568359375 106.1987686157227 L -7125.7568359375 82.47474670410156 L -7100.9033203125 97.16160583496094 L -7047.8046875 67.78623199462891 L -7047.8046875 91.51190948486328 L -7100.9033203125 120.8873062133789 Z M -7133.4716796875 99.51774597167969 L -7152.87060546875 90.78746795654297 L -7152.87060546875 62.50043106079102 L -7152.79541015625 62.541748046875 L -7100.5810546875 33.02780914306641 L -7082.828125 43.37802886962891 L -7133.45361328125 73.16770935058594 L -7133.4716796875 99.51774597167969 Z M -7100.7001953125 87.85948944091797 L -7120.1083984375 77.27114868164062 L -7067.74365234375 47.82910919189453 L -7067.74365234375 19.80996894836426 L -7050.08984375 30.18534851074219 L -7050.08984375 58.05028915405273 L -7050.064453125 58.06486892700195 L -7100.7001953125 87.85948944091797 Z M -7154.0009765625 53.09938812255859 L -7154.0009765625 29.37368965148926 L -7100.9033203125 9.291991773352493e-06 L -7100.9033203125 0.007729291915893555 L -7076.982421875 14.68684959411621 L -7076.982421875 38.41252899169922 L -7100.9033203125 23.72579002380371 L -7154.0009765625 53.09938812255859 Z" stroke="none" fill="#171e2b"/>
    </g>
    <g id="Union_17" data-name="Union 17" transform="translate(7939.001 13315.436)" fill="none">
      <path d="M-7125.757,106.2V82.475l24.854,14.687,53.1-29.375V91.512l-53.1,29.375Zm-27.114-15.411V62.5l.075.041,52.214-29.514,17.753,10.35-50.625,29.79-.018,26.35Zm32.762-13.516,52.365-29.442V19.81l17.654,10.375V58.05l.025.015L-7100.7,87.859ZM-7154,29.374-7100.9,0V.008l23.921,14.679V38.413L-7100.9,23.726-7154,53.1Z" stroke="none"/>
      <path d="M -7100.8212890625 115.1278076171875 L -7052.8046875 88.56387329101562 L -7052.8046875 76.26649475097656 L -7100.9853515625 102.921028137207 L -7120.7568359375 91.23720550537109 L -7120.7568359375 103.3458404541016 L -7100.8212890625 115.1278076171875 M -7138.46630859375 91.78692626953125 L -7138.45166015625 70.30731201171875 L -7092.72119140625 43.39797973632812 L -7100.61962890625 38.79306411743164 L -7147.87060546875 65.50150299072266 L -7147.87060546875 87.55465698242188 L -7138.46630859375 91.78692626953125 M -7100.79345703125 82.11296844482422 L -7055.08984375 55.22050857543945 L -7055.08984375 33.04636764526367 L -7062.74365234375 28.54811859130859 L -7062.74365234375 50.75399017333984 L -7109.7890625 77.20525360107422 L -7100.79345703125 82.11296844482422 M -7149.0009765625 44.61930084228516 L -7100.77197265625 17.93912887573242 L -7081.982421875 29.47547149658203 L -7081.982421875 17.48495483398438 L -7101.04052734375 5.789955615997314 L -7149.0009765625 32.32177734375 L -7149.0009765625 44.61930084228516 M -7100.9033203125 120.8873062133789 L -7125.7568359375 106.1987686157227 L -7125.7568359375 82.47474670410156 L -7100.9033203125 97.16160583496094 L -7047.8046875 67.78623199462891 L -7047.8046875 91.51190948486328 L -7100.9033203125 120.8873062133789 Z M -7133.4716796875 99.51774597167969 L -7152.87060546875 90.78746795654297 L -7152.87060546875 62.50043106079102 L -7152.79541015625 62.541748046875 L -7100.5810546875 33.02780914306641 L -7082.828125 43.37802886962891 L -7133.45361328125 73.16770935058594 L -7133.4716796875 99.51774597167969 Z M -7100.7001953125 87.85948944091797 L -7120.1083984375 77.27114868164062 L -7067.74365234375 47.82910919189453 L -7067.74365234375 19.80996894836426 L -7050.08984375 30.18534851074219 L -7050.08984375 58.05028915405273 L -7050.064453125 58.06486892700195 L -7100.7001953125 87.85948944091797 Z M -7154.0009765625 53.09938812255859 L -7154.0009765625 29.37368965148926 L -7100.9033203125 9.291991773352493e-06 L -7100.9033203125 0.007729291915893555 L -7076.982421875 14.68684959411621 L -7076.982421875 38.41252899169922 L -7100.9033203125 23.72579002380371 L -7154.0009765625 53.09938812255859 Z" stroke="none" fill="#171e2b"/>
    </g>
    <g id="RD-MP_BG_POINt-ICON" data-name="RD-MP BG POINt-ICON" transform="translate(7909.103 12896.557)" fill="none">
      <path d="M-7125.757,106.2V82.475l24.854,14.687,53.1-29.375V91.512l-53.1,29.375Zm-27.114-15.411V62.5l.075.041,52.214-29.514,17.753,10.35-50.625,29.79-.018,26.35Zm32.762-13.516,52.365-29.442V19.81l17.654,10.375V58.05l.025.015L-7100.7,87.859ZM-7154,29.374-7100.9,0V.008l23.921,14.679V38.413L-7100.9,23.726-7154,53.1Z" stroke="none"/>
      <path d="M -7100.8212890625 115.1278076171875 L -7052.8046875 88.56387329101562 L -7052.8046875 76.26649475097656 L -7100.9853515625 102.921028137207 L -7120.7568359375 91.23720550537109 L -7120.7568359375 103.3458404541016 L -7100.8212890625 115.1278076171875 M -7138.46630859375 91.78692626953125 L -7138.45166015625 70.30731201171875 L -7092.72119140625 43.39797973632812 L -7100.61962890625 38.79306411743164 L -7147.87060546875 65.50150299072266 L -7147.87060546875 87.55465698242188 L -7138.46630859375 91.78692626953125 M -7100.79345703125 82.11296844482422 L -7055.08984375 55.22050857543945 L -7055.08984375 33.04636764526367 L -7062.74365234375 28.54811859130859 L -7062.74365234375 50.75399017333984 L -7109.7890625 77.20525360107422 L -7100.79345703125 82.11296844482422 M -7149.0009765625 44.61930084228516 L -7100.77197265625 17.93912887573242 L -7081.982421875 29.47547149658203 L -7081.982421875 17.48495483398438 L -7101.04052734375 5.789955615997314 L -7149.0009765625 32.32177734375 L -7149.0009765625 44.61930084228516 M -7100.9033203125 120.8873062133789 L -7125.7568359375 106.1987686157227 L -7125.7568359375 82.47474670410156 L -7100.9033203125 97.16160583496094 L -7047.8046875 67.78623199462891 L -7047.8046875 91.51190948486328 L -7100.9033203125 120.8873062133789 Z M -7133.4716796875 99.51774597167969 L -7152.87060546875 90.78746795654297 L -7152.87060546875 62.50043106079102 L -7152.79541015625 62.541748046875 L -7100.5810546875 33.02780914306641 L -7082.828125 43.37802886962891 L -7133.45361328125 73.16770935058594 L -7133.4716796875 99.51774597167969 Z M -7100.7001953125 87.85948944091797 L -7120.1083984375 77.27114868164062 L -7067.74365234375 47.82910919189453 L -7067.74365234375 19.80996894836426 L -7050.08984375 30.18534851074219 L -7050.08984375 58.05028915405273 L -7050.064453125 58.06486892700195 L -7100.7001953125 87.85948944091797 Z M -7154.0009765625 53.09938812255859 L -7154.0009765625 29.37368965148926 L -7100.9033203125 9.291991773352493e-06 L -7100.9033203125 0.007729291915893555 L -7076.982421875 14.68684959411621 L -7076.982421875 38.41252899169922 L -7100.9033203125 23.72579002380371 L -7154.0009765625 53.09938812255859 Z" stroke="none" fill="#171e2b"/>
    </g>
    <g id="Union_19" data-name="Union 19" transform="translate(8104.902 12648.557)" fill="none">
      <path d="M-7125.757,106.2V82.475l24.854,14.687,53.1-29.375V91.512l-53.1,29.375Zm-27.114-15.411V62.5l.075.041,52.214-29.514,17.753,10.35-50.625,29.79-.018,26.35Zm32.762-13.516,52.365-29.442V19.81l17.654,10.375V58.05l.025.015L-7100.7,87.859ZM-7154,29.374-7100.9,0V.008l23.921,14.679V38.413L-7100.9,23.726-7154,53.1Z" stroke="none"/>
      <path d="M -7100.8212890625 115.1278076171875 L -7052.8046875 88.56387329101562 L -7052.8046875 76.26649475097656 L -7100.9853515625 102.921028137207 L -7120.7568359375 91.23720550537109 L -7120.7568359375 103.3458404541016 L -7100.8212890625 115.1278076171875 M -7138.46630859375 91.78692626953125 L -7138.45166015625 70.30731201171875 L -7092.72119140625 43.39797973632812 L -7100.61962890625 38.79306411743164 L -7147.87060546875 65.50150299072266 L -7147.87060546875 87.55465698242188 L -7138.46630859375 91.78692626953125 M -7100.79345703125 82.11296844482422 L -7055.08984375 55.22050857543945 L -7055.08984375 33.04636764526367 L -7062.74365234375 28.54811859130859 L -7062.74365234375 50.75399017333984 L -7109.7890625 77.20525360107422 L -7100.79345703125 82.11296844482422 M -7149.0009765625 44.61930084228516 L -7100.77197265625 17.93912887573242 L -7081.982421875 29.47547149658203 L -7081.982421875 17.48495483398438 L -7101.04052734375 5.789955615997314 L -7149.0009765625 32.32177734375 L -7149.0009765625 44.61930084228516 M -7100.9033203125 120.8873062133789 L -7125.7568359375 106.1987686157227 L -7125.7568359375 82.47474670410156 L -7100.9033203125 97.16160583496094 L -7047.8046875 67.78623199462891 L -7047.8046875 91.51190948486328 L -7100.9033203125 120.8873062133789 Z M -7133.4716796875 99.51774597167969 L -7152.87060546875 90.78746795654297 L -7152.87060546875 62.50043106079102 L -7152.79541015625 62.541748046875 L -7100.5810546875 33.02780914306641 L -7082.828125 43.37802886962891 L -7133.45361328125 73.16770935058594 L -7133.4716796875 99.51774597167969 Z M -7100.7001953125 87.85948944091797 L -7120.1083984375 77.27114868164062 L -7067.74365234375 47.82910919189453 L -7067.74365234375 19.80996894836426 L -7050.08984375 30.18534851074219 L -7050.08984375 58.05028915405273 L -7050.064453125 58.06486892700195 L -7100.7001953125 87.85948944091797 Z M -7154.0009765625 53.09938812255859 L -7154.0009765625 29.37368965148926 L -7100.9033203125 9.291991773352493e-06 L -7100.9033203125 0.007729291915893555 L -7076.982421875 14.68684959411621 L -7076.982421875 38.41252899169922 L -7100.9033203125 23.72579002380371 L -7154.0009765625 53.09938812255859 Z" stroke="none" fill="#171e2b"/>
    </g>
    <path id="Path_3354" data-name="Path 3354" d="M8258.43,12633.3l-352.23,451.576,282.4,188.575-250.532,234.427" transform="translate(-7098 -132)" fill="none" stroke="#707070" stroke-linecap="round" stroke-width="8"/>
    <path id="Path_3355" data-name="Path 3355" d="M8258.43,12633.3l-158.122,202.741" transform="translate(-7098 -132)" fill="none" stroke="#fec844" stroke-linecap="round" stroke-width="8"/>
    <path id="Path_3356" data-name="Path 3356" d="M8254.874,12631.3l6.461,4.832L8104.3,12837.393l-6.271-4.968Z" transform="translate(-6999.658 -258)" fill="url(#linear-gradient)"/>
    <g transform="matrix(1, 0, 0, 1, 755.1, 12373.3)" filter="url(#Colored_POINT)">
      <g id="Colored_POINT-2" data-name="Colored POINT" transform="translate(225.9 307.7)" fill="#fff" stroke="#fec844" stroke-width="10">
        <circle cx="23" cy="23" r="23" stroke="none"/>
        <circle cx="23" cy="23" r="18" fill="none"/>
      </g>
    </g>
    <g id="RD_POINT" data-name="RD POINT" transform="translate(785 12934)" fill="#fff" stroke="#424c61" stroke-width="10">
      <circle cx="23" cy="23" r="23" stroke="none"/>
      <circle cx="23" cy="23" r="18" fill="none"/>
    </g>
    <g id="Ellipse_36" data-name="Ellipse 36" transform="translate(1057.901 13121.777)" fill="#fff" stroke="#424c61" stroke-width="10">
      <circle cx="23" cy="23" r="23" stroke="none"/>
      <circle cx="23" cy="23" r="18" fill="none"/>
    </g>
    <g id="Ellipse_37" data-name="Ellipse 37" transform="translate(815.882 13352.879)" fill="#fff" stroke="#424c61" stroke-width="10">
      <circle cx="23" cy="23" r="23" stroke="none"/>
      <circle cx="23" cy="23" r="18" fill="none"/>
    </g>
  </g>
</svg>
