<svg xmlns="http://www.w3.org/2000/svg" width="56" height="55" viewBox="0 0 56 55">
  <g id="Social-Icon-4" transform="translate(-403 -15448)">
    <ellipse id="Ellipse_39" data-name="Ellipse 39" cx="28" cy="27.5" rx="28" ry="27.5" transform="translate(403 15448)" fill="#273041"/>
    <path id="Icon_awesome-twitter" data-name="Icon awesome-twitter" d="M27.407,9.564c.019.271.019.543.019.814,0,8.276-6.3,17.813-17.813,17.813A17.692,17.692,0,0,1,0,25.38a12.952,12.952,0,0,0,1.512.078,12.538,12.538,0,0,0,7.773-2.675,6.272,6.272,0,0,1-5.854-4.342,7.9,7.9,0,0,0,1.182.1,6.621,6.621,0,0,0,1.648-.213,6.262,6.262,0,0,1-5.02-6.144V12.1a6.305,6.305,0,0,0,2.83.795A6.27,6.27,0,0,1,2.132,4.524a17.8,17.8,0,0,0,12.909,6.551,7.067,7.067,0,0,1-.155-1.434A6.267,6.267,0,0,1,25.721,5.358a12.326,12.326,0,0,0,3.974-1.512A6.244,6.244,0,0,1,26.942,7.3a12.551,12.551,0,0,0,3.605-.969,13.458,13.458,0,0,1-3.14,3.237Z" transform="translate(417.454 15461.109)" fill="#fff"/>
  </g>
</svg>
