<svg xmlns="http://www.w3.org/2000/svg" width="55" height="55" viewBox="0 0 55 55">
  <path id="Social-Icon-2" d="M27.5.563A27.5,27.5,0,1,0,55,28.063,27.5,27.5,0,0,0,27.5.563ZM41.006,19.4,36.493,40.67c-.333,1.508-1.231,1.874-2.484,1.164l-6.875-5.068-3.316,3.194a1.735,1.735,0,0,1-1.386.676l.488-7L35.661,22.13c.554-.488-.122-.765-.854-.277L19.061,31.766l-6.786-2.118c-1.475-.466-1.508-1.475.31-2.184L39.1,17.24c1.231-.444,2.306.3,1.907,2.162Z" transform="translate(0 -0.563)" fill="#273041"/>
</svg>
