<svg xmlns="http://www.w3.org/2000/svg" width="1327" height="409.036" viewBox="0 0 1327 409.036">
  <g id="Pie_chart_data" data-name="Pie chart data" transform="translate(-279 -8108.251)">
    <g id="Group_343" data-name="Group 343" transform="translate(10 -699.453)">
      <g id="Group_341" data-name="Group 341" transform="translate(-104 243.167)">
        <text id="Presale" transform="translate(1306.5 8748.704)" fill="#0b0f17" font-size="22" font-family="SegoeUI, Segoe UI" letter-spacing="0.02em"><tspan x="0" y="0">Presale</tspan></text>
        <text id="_35_" data-name="35%" transform="translate(1653 8748.704)" fill="#0b0f17" font-size="22" font-family="SegoeUI, Segoe UI" letter-spacing="0.02em"><tspan x="0" y="0">35%</tspan></text>
        <line id="Line_28" data-name="Line 28" x2="390" transform="translate(1307 8762.204)" fill="none" stroke="#eee" stroke-linecap="round" stroke-width="6"/>
        <line id="Line_29" data-name="Line 29" x2="123" transform="translate(1307 8762.204)" fill="none" stroke="#ff9200" stroke-linecap="round" stroke-width="6"/>
      </g>
      <g id="Group_342" data-name="Group 342" transform="translate(-126.5 356.25)">
        <text id="Exchange_Listings" data-name="Exchange Listings" transform="translate(1306.5 8806.704)" fill="#0b0f17" font-size="22" font-family="SegoeUI, Segoe UI" letter-spacing="0.02em"><tspan x="0" y="0">Exchange Listings</tspan></text>
        <text id="_19.5_" data-name="19.5%" transform="translate(1640.5 8806.704)" fill="#0b0f17" font-size="22" font-family="SegoeUI, Segoe UI" letter-spacing="0.02em"><tspan x="0" y="0">19.5%</tspan></text>
        <line id="Line_28-2" data-name="Line 28" x2="390" transform="translate(1307 8820.204)" fill="none" stroke="#eee" stroke-linecap="round" stroke-width="6"/>
        <line id="Line_29-2" data-name="Line 29" x2="56" transform="translate(1307 8820.204)" fill="none" stroke="#cfdbd5" stroke-linecap="round" stroke-width="6"/>
      </g>
      <g id="Group_336" data-name="Group 336" transform="translate(-946 316.027)">
        <text id="Reserve_Capital" data-name="Reserve Capital" transform="translate(1306.5 8864.704)" fill="#0b0f17" font-size="22" font-family="SegoeUI, Segoe UI" letter-spacing="0.02em"><tspan x="0" y="0">Reserve Capital</tspan></text>
        <text id="_7_" data-name="7%" transform="translate(1667.5 8864.704)" fill="#0b0f17" font-size="22" font-family="SegoeUI, Segoe UI" letter-spacing="0.02em"><tspan x="0" y="0">7%</tspan></text>
        <line id="Line_28-3" data-name="Line 28" x2="390" transform="translate(1307 8878.204)" fill="none" stroke="#eee" stroke-linecap="round" stroke-width="6"/>
        <line id="Line_29-3" data-name="Line 29" x2="36" transform="translate(1307 8878.204)" fill="none" stroke="#63898b" stroke-linecap="round" stroke-width="6"/>
      </g>
      <g id="Group_338" data-name="Group 338" transform="translate(-1035 177.117)">
        <text id="Marketing" transform="translate(1306.5 8922.704)" fill="#0b0f17" font-size="22" font-family="SegoeUI, Segoe UI" letter-spacing="0.02em"><tspan x="0" y="0">Marketing</tspan></text>
        <text id="_12_" data-name="12%" transform="translate(1658.5 8922.704)" fill="#0b0f17" font-size="22" font-family="SegoeUI, Segoe UI" letter-spacing="0.02em"><tspan x="0" y="0">12%</tspan></text>
        <line id="Line_28-4" data-name="Line 28" x2="390" transform="translate(1307 8936.204)" fill="none" stroke="#eee" stroke-linecap="round" stroke-width="6"/>
        <line id="Line_29-4" data-name="Line 29" x2="39" transform="translate(1307 8936.204)" fill="none" stroke="#fec844" stroke-linecap="round" stroke-width="6"/>
      </g>
      <g id="Group_340" data-name="Group 340" transform="translate(-1035 20.308)">
        <text id="LP_Acquisition" data-name="LP Acquisition" transform="translate(1306.5 8980.704)" fill="#0b0f17" font-size="22" font-family="SegoeUI, Segoe UI" letter-spacing="0.02em"><tspan x="0" y="0">LP Acquisition</tspan></text>
        <text id="_18.0_" data-name="18.0%" transform="translate(1639.5 8980.704)" fill="#0b0f17" font-size="22" font-family="SegoeUI, Segoe UI" letter-spacing="0.02em"><tspan x="0" y="0">18.0%</tspan></text>
        <line id="Line_28-5" data-name="Line 28" x2="390" transform="translate(1307 8994.204)" fill="none" stroke="#eee" stroke-linecap="round" stroke-width="6"/>
        <line id="Line_29-5" data-name="Line 29" x2="43" transform="translate(1307 8994.204)" fill="none" stroke="#0b0f17" stroke-linecap="round" stroke-width="6"/>
      </g>
      <g id="Group_397" data-name="Group 397" transform="translate(-1023.842 -65.955)">
        <text id="Team_Funds" data-name="Team Funds" transform="translate(1306.5 8980.704)" fill="#0b0f17" font-size="22" font-family="SegoeUI, Segoe UI" letter-spacing="0.02em"><tspan x="0" y="0">Team Funds</tspan></text>
        <text id="_8.0_" data-name="8.0%" transform="translate(1647 8980.704)" fill="#0b0f17" font-size="22" font-family="SegoeUI, Segoe UI" letter-spacing="0.02em"><tspan x="0" y="0">8.0%</tspan></text>
        <line id="Line_28-6" data-name="Line 28" x2="390" transform="translate(1307 8994.204)" fill="none" stroke="#eee" stroke-linecap="round" stroke-width="6"/>
        <line id="Line_29-6" data-name="Line 29" x2="23" transform="translate(1307 8994.204)" fill="none" stroke="#65dbdf" stroke-linecap="round" stroke-width="6"/>
      </g>
      <g id="Group_339" data-name="Group 339" transform="translate(-946 -207)">
        <text id="Advisors_Partnerships" data-name="Advisors &amp; Partnerships" transform="translate(1306.5 9038.704)" fill="#0b0f17" font-size="22" font-family="SegoeUI, Segoe UI" letter-spacing="0.02em"><tspan x="0" y="0">Advisors &amp; Partnerships</tspan></text>
        <text id="_5.0_" data-name="5.0%" transform="translate(1648.5 9038.704)" fill="#0b0f17" font-size="22" font-family="SegoeUI, Segoe UI" letter-spacing="0.02em"><tspan x="0" y="0">5.0%</tspan></text>
        <line id="Line_28-7" data-name="Line 28" x2="390" transform="translate(1307 9052.204)" fill="none" stroke="#eee" stroke-linecap="round" stroke-width="6"/>
        <line id="Line_29-7" data-name="Line 29" x2="15" transform="translate(1307 9052.204)" fill="none" stroke="#7b7b7b" stroke-linecap="round" stroke-width="6"/>
      </g>
      <g id="Group_337" data-name="Group 337" transform="translate(-183 -218.192)">
        <text id="Charity_Community_" data-name="Charity (Community)" transform="translate(1306.5 9096.704)" fill="#0b0f17" font-size="22" font-family="SegoeUI, Segoe UI" letter-spacing="0.02em"><tspan x="0" y="0">Charity (Community)</tspan></text>
        <text id="_1.0_" data-name="1.0%" transform="translate(1651.5 9096.704)" fill="#0b0f17" font-size="22" font-family="SegoeUI, Segoe UI" letter-spacing="0.02em"><tspan x="0" y="0">1.0%</tspan></text>
        <line id="Line_28-8" data-name="Line 28" x2="390" transform="translate(1307 9110.204)" fill="none" stroke="#eee" stroke-linecap="round" stroke-width="6"/>
        <line id="Line_29-8" data-name="Line 29" x2="1" transform="translate(1307 9110.204)" fill="none" stroke="#9cce83" stroke-linecap="round" stroke-width="6"/>
      </g>
      <path id="Path_3400" data-name="Path 3400" d="M15248.5,8285.166l65.416,48.205h150.77l9.231,19.487" transform="translate(-14546 573)" fill="none" stroke="#7b7b7b" stroke-linecap="round" stroke-width="1"/>
      <path id="Path_3401" data-name="Path 3401" d="M15135.454,8386.705l9.927,14.358h85.164" transform="translate(-14460.796 611.057)" fill="none" stroke="#7b7b7b" stroke-linecap="round" stroke-width="1"/>
      <path id="Path_3402" data-name="Path 3402" d="M15158.018,8524.142l16.41,14.358H15321.1" transform="translate(-14544.975 593)" fill="none" stroke="#7b7b7b" stroke-linecap="round" stroke-width="1"/>
      <path id="Path_3403" data-name="Path 3403" d="M15222.634,8633.516l20.743,9.6,86.862-55.385" transform="translate(-14483.348 573)" fill="none" stroke="#7b7b7b" stroke-linecap="round" stroke-width="1"/>
      <path id="Path_3404" data-name="Path 3404" d="M15748.5,8620.2l-19.2,22.912-100.514-50.257" transform="translate(-14546 573)" fill="none" stroke="#7b7b7b" stroke-linecap="round" stroke-width="1"/>
      <path id="Path_3405" data-name="Path 3405" d="M15813.405,8445.167l-18.462,21.538h-86.153" transform="translate(-14546 573)" fill="none" stroke="#7b7b7b" stroke-linecap="round" stroke-width="1"/>
      <path id="Path_3406" data-name="Path 3406" d="M15664.687,8331.32l-16.41,14.358h-142.564" transform="translate(-14545.712 573)" fill="none" stroke="#7b7b7b" stroke-linecap="round" stroke-width="1"/>
      <path id="Path_3480" data-name="Path 3480" d="M15276.6,8312.7l23.727,17.676h0l136.933,20.135" transform="translate(-14587.182 613.159)" fill="none" stroke="#7b7b7b" stroke-linecap="round" stroke-width="1"/>
    </g>
    <g id="Group_355" data-name="Group 355" transform="translate(-3929 -89.948)">
      <g id="Group_356" data-name="Group 356" transform="translate(4880.814 8322.227)">
        <path id="Path_3432" data-name="Path 3432" d="M341.694,93.006v29.84L325.761,30.188V.348Z" transform="translate(-325.761 -0.348)" fill="#5e824c"/>
      </g>
      <g id="Group_357" data-name="Group 357" transform="translate(4880.814 8322)">
        <path id="Path_3433" data-name="Path 3433" d="M341.695,0V92.886L325.761.227C330.794.084,336.644,0,341.695,0Z" transform="translate(-325.761)" fill="#9cce83"/>
      </g>
      <g id="Group_360" data-name="Group 360" transform="translate(4811.2 8334.157)">
        <path id="Path_3434" data-name="Path 3434" d="M304.748,104.73v29.84L219.2,48.45V18.61Z" transform="translate(-219.201 -18.61)" fill="#4972af"/>
      </g>
      <g id="Group_361" data-name="Group 361" transform="translate(4811.201 8327.619)">
        <path id="Path_3435" data-name="Path 3435" d="M288.815,8.6l15.934,92.659L219.2,15.14A496.808,496.808,0,0,1,288.815,8.6Z" transform="translate(-219.201 -8.601)" fill="#699ce9"/>
      </g>
      <g id="Group_364" data-name="Group 364" transform="translate(4729.727 8363.006)">
        <path id="Path_3436" data-name="Path 3436" d="M261.508,126.115v29.84L94.488,92.609V62.769Z" transform="translate(-94.488 -62.769)" fill="#121212"/>
      </g>
      <g id="Group_365" data-name="Group 365" transform="translate(4729.728 8340.232)">
        <path id="Path_3437" data-name="Path 3437" d="M175.961,27.908l85.548,86.12L94.488,50.682C118.576,40.176,143.218,33.289,175.961,27.908Z" transform="translate(-94.488 -27.908)" fill="#65dbdf"/>
      </g>
      <g id="Group_368" data-name="Group 368" transform="translate(4675.165 8398.277)">
        <path id="Path_3438" data-name="Path 3438" d="M232.55,139.232v29.84L10.968,146.6V116.76Z" transform="translate(-10.968 -116.76)" fill="#1e2637"/>
      </g>
      <g id="Group_369" data-name="Group 369" transform="translate(4675.165 8358.056)">
        <path id="Path_3439" data-name="Path 3439" d="M65.53,54.192l167.021,63.346L10.968,95.067C20.734,79.14,38.008,66.2,65.53,54.192Z" transform="translate(-10.968 -54.192)" fill="#0b0f17"/>
      </g>
      <g id="Group_372" data-name="Group 372" transform="translate(4753.028 8431.34)">
        <path id="Path_3440" data-name="Path 3440" d="M273.875,167.37v29.84l-143.72,72.183v-29.84Z" transform="translate(-130.155 -167.37)" fill="#9f7b23"/>
      </g>
      <path id="Union_23" data-name="Union 23" d="M70.556,95.951C24.7,78.253,0,54.778,0,29.841V0C0,24.938,24.7,48.412,70.556,66.111q6.918,2.669,14.473,5.159v29.84Q77.475,98.622,70.556,95.951Z" transform="translate(4668 8431.34)" fill="#97782d" stroke="rgba(0,0,0,0)" stroke-miterlimit="10" stroke-width="1"/>
      <path id="Path_3443" data-name="Path 3443" d="M0,198.608v-29.84c0,27.446,29.918,53.118,85.028,71.27v29.84C29.918,251.727,0,226.054,0,198.608Z" transform="translate(4668 8334.477)" fill="none"/>
      <g id="Group_376" data-name="Group 376" transform="translate(4668 8408.868)">
        <path id="Path_3444" data-name="Path 3444" d="M7.165,132.972l221.583,22.472L85.028,227.627C14.462,204.384-14.8,168.81,7.165,132.972Z" transform="translate(0 -132.972)" fill="#fec844"/>
      </g>
      <path id="Path_3455" data-name="Path 3455" d="M676.563,157.129v29.84c0,20.518-13.964,38-43.615,54.594V211.723C662.6,195.124,676.563,177.647,676.563,157.129Z" transform="translate(4448.546 8267.521)" fill="#ffb450"/>
      <g id="Group_382" data-name="Group 382" transform="translate(4896.748 8424.65)">
        <path id="Path_3456" data-name="Path 3456" d="M534.9,211.723v29.84L350.151,186.969v-29.84Z" transform="translate(-350.151 -157.129)" fill="#ae6400"/>
      </g>
      <g id="Group_383" data-name="Group 383" transform="translate(4896.748 8331.764)">
        <path id="Path_3457" data-name="Path 3457" d="M350.151,14.946c126.116,0,228.362,41.587,228.362,92.886,0,20.518-13.964,38-43.615,54.594L350.151,107.832Z" transform="translate(-350.151 -14.946)" fill="#ff9200"/>
      </g>
      <path id="Path_3477" data-name="Path 3477" d="M543.352,250.881v29.841c-41.516,23.242-98.365,36.057-168.82,38.062v-29.84C444.987,286.939,501.836,274.124,543.352,250.881Z" transform="translate(4538.144 8235.016)" fill="#b9c6c0"/>
      <g id="Group_395" data-name="Group 395" transform="translate(4896.748 8431.303)">
        <path id="Path_3478" data-name="Path 3478" d="M366.078,259.969v29.84l-15.928-92.656v-29.84Z" transform="translate(-350.151 -167.313)" fill="#96a49d"/>
      </g>
      <g id="Group_396" data-name="Group 396" transform="translate(4896.748 8431.303)">
        <path id="Path_3479" data-name="Path 3479" d="M350.151,167.313,534.9,221.907c-41.515,23.243-98.365,36.058-168.82,38.062Z" transform="translate(-350.151 -167.313)" fill="#cfdbd5"/>
      </g>
      <path id="Path_3469" data-name="Path 3469" d="M289.8,298.572v29.84q-9.228.263-18.214.263c-52.768,0-99.179-6.818-141.434-20.736V278.1c42.255,13.918,88.666,20.736,141.434,20.736Q280.567,298.835,289.8,298.572Z" transform="translate(4622.873 8234.57)" fill="#51696a"/>
      <g id="Group_389" data-name="Group 389" transform="translate(4753.028 8440.641)">
        <path id="Path_3470" data-name="Path 3470" d="M273.875,167.606,289.8,260.262q-9.228.263-18.214.263c-52.768,0-99.179-6.818-141.434-20.736Z" transform="translate(-130.155 -167.606)" fill="#63898b"/>
      </g>
    </g>
  </g>
</svg>
