<svg id="total_presale_token" data-name="total presale token" xmlns="http://www.w3.org/2000/svg" width="30.662" height="21.208" viewBox="0 0 30.662 21.208">
  <path id="Path_3481" data-name="Path 3481" d="M71.563,339.851c-4.177,0-7.563-1.129-7.563-2.521v-2.521H79.127v2.521c0,1.392-3.386,2.521-7.563,2.521" transform="translate(-60.882 -319.085)" fill="#ecab2c"/>
  <path id="Path_3482" data-name="Path 3482" d="M71.563,339.851c-4.177,0-7.563-1.129-7.563-2.521v-2.521H79.127v2.521C79.127,338.722,75.74,339.851,71.563,339.851Z" transform="translate(-60.882 -319.085)" fill="#ecab2c"/>
  <ellipse id="Ellipse_43" data-name="Ellipse 43" cx="7.563" cy="2.521" rx="7.563" ry="2.521" transform="translate(3.118 13.203)" fill="#ffc864"/>
  <path id="Path_3483" data-name="Path 3483" d="M31.563,271.425C27.386,271.425,24,270.3,24,268.9v-2.521H39.127V268.9c0,1.392-3.386,2.521-7.563,2.521" transform="translate(-23.48 -255.104)" fill="#ecab2c"/>
  <path id="Path_3484" data-name="Path 3484" d="M31.563,271.425C27.386,271.425,24,270.3,24,268.9v-2.521H39.127V268.9C39.127,270.3,35.74,271.425,31.563,271.425Z" transform="translate(-23.48 -255.104)" fill="#ecab2c"/>
  <ellipse id="Ellipse_44" data-name="Ellipse 44" cx="7.563" cy="2.521" rx="7.563" ry="2.521" transform="translate(0.52 8.758)" fill="#ffc864"/>
  <path id="Path_3485" data-name="Path 3485" d="M70.364,215.425c-4.177,0-7.564-1.129-7.564-2.521v-2.521H77.927V212.9c0,1.392-3.386,2.521-7.563,2.521" transform="translate(-59.76 -202.742)" fill="#ecab2c"/>
  <path id="Path_3486" data-name="Path 3486" d="M70.364,215.425c-4.177,0-7.564-1.129-7.564-2.521v-2.521H77.927V212.9C77.927,214.3,74.541,215.425,70.364,215.425Z" transform="translate(-59.76 -202.742)" fill="#ecab2c"/>
  <ellipse id="Ellipse_45" data-name="Ellipse 45" cx="7.563" cy="2.521" rx="7.563" ry="2.521" transform="translate(3.041 5.12)" fill="#ffc864"/>
  <circle id="Ellipse_46" data-name="Ellipse 46" cx="7.563" cy="7.563" r="7.563" transform="translate(15.016 5.562)" fill="#ecab2c"/>
  <circle id="Ellipse_47" data-name="Ellipse 47" cx="5.042" cy="5.042" r="5.042" transform="translate(17.537 8.083)" fill="#ffc864"/>
  <g id="Group_398" data-name="Group 398" transform="translate(0.52 3.061)">
    <path id="Path_3487" data-name="Path 3487" d="M337.622,263.1v-2.306l-2-1.153-2,1.153V263.1l2,1.153Z" transform="translate(-313.514 -251.858)" fill="#ecab2c"/>
    <path id="Path_3488" data-name="Path 3488" d="M31.563,144.926c-4.177,0-7.563-1.129-7.563-2.521v-2.521H39.127v2.521c0,1.392-3.386,2.521-7.563,2.521" transform="translate(-24 -139.884)" fill="#ecab2c"/>
    <path id="Path_3489" data-name="Path 3489" d="M31.563,144.926c-4.177,0-7.563-1.129-7.563-2.521v-2.521H39.127v2.521c0,1.392-3.386,2.521-7.563,2.521Z" transform="translate(-24 -139.884)" fill="#ecab2c"/>
  </g>
  <ellipse id="Ellipse_48" data-name="Ellipse 48" cx="7.563" cy="2.521" rx="7.563" ry="2.521" transform="translate(0.52 0.54)" fill="#ffc864"/>
  <path id="Path_3490" data-name="Path 3490" d="M38.579,97.808A8.035,8.035,0,0,0,34.2,99.1a5.183,5.183,0,0,0-2.03-1.143V95.807c0-.647-.446-1.567-2.571-2.276a18.107,18.107,0,0,0-5.512-.765,18.119,18.119,0,0,0-5.513.765C16.446,94.239,16,95.159,16,95.807v2.521c0,.642.44,1.553,2.521,2.259v1.155C16.45,102.441,16,103.347,16,104v2.521c0,.642.44,1.553,2.521,2.259v2.153c0,.647.446,1.567,2.571,2.276a18.107,18.107,0,0,0,5.512.765c3.127,0,5.861-.609,7.188-1.575A8.081,8.081,0,1,0,38.58,97.808Zm-16.5,13.159c.465.111.961.2,1.482.279v1.471a14.335,14.335,0,0,1-1.482-.3Zm2.521,1.857v-1.459c.481.043.977.07,1.482.081v1.481c-.507-.012-1-.04-1.483-.085,0-.006,0-.013,0-.019Zm2.521-1.377c.5-.011,1-.039,1.482-.082v1.459c0,.007,0,.014,0,.021-.467.043-.962.072-1.483.084Zm2.521-.2c.521-.074,1.018-.167,1.482-.278v1.451a14.238,14.238,0,0,1-1.482.3Zm-3.041-.832a17.074,17.074,0,0,1-5.184-.712,6.216,6.216,0,0,1-1.075-.46,20.95,20.95,0,0,0,3.738.32,15.009,15.009,0,0,0,6.766-1.307,8.042,8.042,0,0,0,.652,1.536,17.765,17.765,0,0,1-4.9.622Zm-.52-3.459v1.457c0,.005,0,.011,0,.016-.48.045-.977.076-1.483.088v-1.481c.507-.011,1-.038,1.482-.08Zm0-8.2v1.459c0,.006,0,.013,0,.019-.48.045-.976.073-1.483.085V98.841c.5-.011,1-.038,1.482-.081Zm5.042-.476a.508.508,0,0,0,0,.079c-.031.281-.438.714-1.479,1.119V98.065a6.445,6.445,0,0,0,1.482-.69Zm-2.521,1.528a14.329,14.329,0,0,1-1.482.3V98.641c.52-.074,1.016-.167,1.482-.279Zm-5.042.511c-.507-.012-1-.04-1.483-.085,0-.007,0-.013,0-.019V98.76c.482.043.977.07,1.482.081Zm-2.521-.211a14.33,14.33,0,0,1-1.482-.3v-1.45c.465.111.961.2,1.482.279Zm-1.482,1.675a6.436,6.436,0,0,0,1.482.69v1.416c-1.085-.422-1.482-.875-1.482-1.153Zm2.521.987c.465.111.961.2,1.482.279v1.471a14.333,14.333,0,0,1-1.482-.3Zm2.521,1.857v-1.459c.481.043.977.07,1.482.081v1.481c-.507-.012-1-.04-1.483-.085,0-.006,0-.013,0-.019Zm2.521-1.377c.505-.011,1-.038,1.482-.08v1.457c0,.007,0,.012,0,.019-.482.045-.978.074-1.483.086Zm3.373,2.665a8.107,8.107,0,0,0,.1,1.271,4.624,4.624,0,0,1-.956.485v-1.414a7.969,7.969,0,0,0,.852-.342Zm.149-1.579c-.32.07-.655.131-1,.184v-1.47c.518-.074,1.012-.167,1.476-.278a8.018,8.018,0,0,0-.474,1.564ZM28.605,108a14.892,14.892,0,0,1-1.482.3v-1.465c.523-.074,1.019-.167,1.482-.278Zm-5.042.513c-.507-.012-1-.04-1.483-.085,0-.007,0-.013,0-.019v-1.459c.482.043.977.07,1.482.081Zm-2.521-.211a14.33,14.33,0,0,1-1.482-.3v-1.45c.465.111.961.2,1.482.279Zm10.751-6.8a17.238,17.238,0,0,1-5.189.715,17.074,17.074,0,0,1-5.184-.712,6.217,6.217,0,0,1-1.075-.46,20.951,20.951,0,0,0,3.738.32,18.117,18.117,0,0,0,5.512-.765A3.907,3.907,0,0,0,32,99a4.253,4.253,0,0,1,1.357.728A8.146,8.146,0,0,0,31.793,101.506ZM18.9,94.517a17.07,17.07,0,0,1,5.184-.712,17.07,17.07,0,0,1,5.184.712c1.373.458,1.86.981,1.86,1.29s-.487.832-1.86,1.29a17.072,17.072,0,0,1-5.184.712A17.072,17.072,0,0,1,18.9,97.1c-1.373-.458-1.86-.981-1.86-1.29s.487-.832,1.86-1.29Zm-1.86,3.811v-.953a6.436,6.436,0,0,0,1.482.69v1.416C17.436,99.06,17.039,98.607,17.039,98.328Zm1.486,4.518c.048.639.555,1.5,2.566,2.17a18.117,18.117,0,0,0,5.512.765q.283,0,.564-.007a20.514,20.514,0,0,1-3.085.228,17.073,17.073,0,0,1-5.184-.712c-1.372-.458-1.859-.981-1.859-1.29S17.5,103.244,18.525,102.846Zm-1.486,3.676v-.953a6.436,6.436,0,0,0,1.482.69v1.416C17.436,107.253,17.039,106.8,17.039,106.522Zm2.521,4.412v-.953a6.436,6.436,0,0,0,1.482.69v1.416c-1.085-.422-1.482-.875-1.482-1.154Zm12.606,1.152V110.8a8.148,8.148,0,0,0,.8.9A5.27,5.27,0,0,1,32.166,112.085Zm6.413.85a7.041,7.041,0,0,1-5.795-3.045v0a.516.516,0,0,0-.132-.195,7.042,7.042,0,1,1,5.928,3.243Z" transform="translate(-16 -92.766)"/>
  <path id="Path_3491" data-name="Path 3491" d="M283.517,209.191a5.562,5.562,0,1,0,5.562,5.562A5.562,5.562,0,0,0,283.517,209.191Zm0,10.085a4.523,4.523,0,1,1,4.523-4.523,4.523,4.523,0,0,1-4.523,4.523Z" transform="translate(-260.938 -201.628)"/>
  <path id="Path_3492" data-name="Path 3492" d="M330.4,252.861l-2-1.153a.52.52,0,0,0-.52,0l-2,1.153a.52.52,0,0,0-.26.45v2.306a.52.52,0,0,0,.26.45l2,1.153a.52.52,0,0,0,.52,0l2-1.153a.52.52,0,0,0,.26-.45v-2.306a.52.52,0,0,0-.26-.45Zm-.78,2.456-1.477.853-1.477-.853v-1.706l1.477-.853,1.477.853Z" transform="translate(-305.514 -241.317)"/>
</svg>
