<svg id="USDT-Icon" xmlns="http://www.w3.org/2000/svg" width="25" height="25" viewBox="0 0 25 25">
  <path id="Path_3294" data-name="Path 3294" d="M12.5,0A12.5,12.5,0,1,1,0,12.5,12.5,12.5,0,0,1,12.5,0" fill="#53ae94"/>
  <path id="Path_3295" data-name="Path 3295" d="M402.229,496.033v-1.859h4.252V491.34H394.9v2.833h4.253v1.858c-3.456.159-6.055.843-6.055,1.663s2.6,1.5,6.055,1.664v5.956h3.075v-5.957c3.45-.159,6.044-.843,6.044-1.663s-2.594-1.5-6.044-1.663m0,2.82h0c-.087.005-.532.032-1.525.032-.793,0-1.352-.022-1.548-.033v0c-3.053-.135-5.333-.667-5.333-1.3s2.28-1.167,5.333-1.3v2.076c.2.014.772.048,1.561.048.948,0,1.425-.04,1.513-.048v-2.076c3.047.136,5.322.668,5.322,1.3s-2.275,1.166-5.322,1.3" transform="translate(-388.186 -485.198)" fill="#fff"/>
</svg>
